<svg version="1.1" width="80" height="120" xmlns="http://www.w3.org/2000/svg" xmlns:xlink="http://www.w3.org/1999/xlink" x="0px" y="0px"
	 viewBox="0 0 80 135" style="enable-background:new 0 0 80 135;" xml:space="preserve">
<style type="text/css">
	.st0{fill:url(#SVGID_1_);}
	.st1{fill:url(#SVGID_2_);}
	.st2{fill:url(#SVGID_3_);}
</style>
<g id="arrow">
	
		<linearGradient id="SVGID_1_" gradientUnits="userSpaceOnUse" x1="-899.2592" y1="602.5117" x2="-899.2592" y2="601.5117" gradientTransform="matrix(47.7631 0 0 -86 42989.3242 51816)">
		<stop  offset="0" style="stop-color:#F4E70B"/>
		<stop  offset="0.5" style="stop-color:#B7B304"/>
		<stop  offset="1" style="stop-color:#919706"/>
	</linearGradient>
	<path class="st0" d="M14,0c34.4,13.4,53.9,49.9,46,86l-6-9C59.7,45.2,43.3,13.6,14,0"/>
	
		<linearGradient id="SVGID_2_" gradientUnits="userSpaceOnUse" x1="-902.6552" y1="599.4182" x2="-902.6552" y2="598.4182" gradientTransform="matrix(58 0 0 -55 52405 33048)">
		<stop  offset="0" style="stop-color:#818A07"/>
		<stop  offset="0.5" style="stop-color:#808A07"/>
		<stop  offset="1" style="stop-color:#7A8607"/>
	</linearGradient>
	<path class="st1" d="M22,131l5,4l53-51l-6-4l0,0L22,131z"/>
	
		<linearGradient id="SVGID_3_" gradientUnits="userSpaceOnUse" x1="-906.0811" y1="604.397" x2="-906.0811" y2="603.397" gradientTransform="matrix(74 0 0 -131 67087 79176)">
		<stop  offset="0" style="stop-color:#F4E70B"/>
		<stop  offset="0.5" style="stop-color:#DDDD15"/>
		<stop  offset="1" style="stop-color:#B6C80C"/>
	</linearGradient>
	<path class="st2" d="M14,0c17.5,19.4,19.6,48.3,5,70L0,66l22,65l52-51l-20-3C59.7,45.2,43.3,13.6,14,0"/>
</g>
</svg>
