<svg version="1.1" id="Layer_1" xmlns="http://www.w3.org/2000/svg" xmlns:xlink="http://www.w3.org/1999/xlink" x="0px" y="0px"
	 viewBox="0 0 160 160" style="enable-background:new 0 0 160 160;" xml:space="preserve">
<g>
	
		<radialGradient id="SVGflower1" cx="79.9832" cy="79.9623" r="75.5952" gradientTransform="matrix(1.0448 0 0 1.0389 -3.612 -3.0702)" gradientUnits="userSpaceOnUse">
		<stop  offset="0" style="stop-color:#000000"/>
		<stop  offset="0.1733" style="stop-color:#3D3D3D"/>
		<stop  offset="1" style="stop-color:#606060"/>
	</radialGradient>
	<path fill="url(#SVGflower1)" d="M70.9,5.6c0,0,8.4-11.4,16.7,0c0,0,5.2,8.3,15.7,4.2c0,0,13.6-7.3,15.7,6.2c0,0,0,11.4,13.6,10.4
		c0,0,14.6,0,10.4,13.5c0,0-3.1,9.3,7.3,14.5c0,0,13.6,6.2,4.2,17.7c0,0-7.3,8.3,0,15.6c0,0,8.4,8.3-1,15.6c0,0-11.5,5.2-9.4,16.6
		c0,0,3.1,14.5-11.5,13.5c0,0-11.5,1-11.5,9.3c0,0-2.1,14.5-15.7,8.3c0,0-10.4-5.2-16.7,4.2c0,0-9.4,10.4-17.8-1
		c0,0-7.3-7.3-15.7-3.1c0,0-10.4,7.3-15.7-7.3c0,0-2.1-11.4-13.6-9.3c0,0-11.5,1-10.4-13.5c0,0,3.1-12.5-7.3-15.6
		c0,0-11.5-5.2-3.1-16.6c0,0,6.3-8.3,0-15.6c0,0-8.4-9.3,2.1-16.6c0,0,9.4-3.1,8.4-11.4c0,0-4.2-20.8,11.5-17.7
		c0,0,10.4,2.1,11.5-9.3c0,0,2.1-15.6,16.7-8.3C55.3,9.7,65.7,16,70.9,5.6z"/>
	
		<linearGradient id="SVGflower2" gradientUnits="userSpaceOnUse" x1="-651.113" y1="-7.9557" x2="-651.113" y2="-6.9557" gradientTransform="matrix(149.3064 0 0 153.0512 97294.9609 1220.7343)">
		<stop  offset="0" style="stop-color:#D74C10"/>
		<stop  offset="1" style="stop-color:#B1240D"/>
	</linearGradient>
	<path fill="url(#SVGflower2)" stroke="#F6DE02" stroke-width="2" stroke-miterlimit="10" d="M71,8c0,0,8-11,16,0c0,0,5,8,15,4c0,0,13-7,15,6c0,0,0,11,13,10c0,0,14,0,10,13c0,0-3,9,7,14c0,0,13,6,4,17
		c0,0-7,8,0,15c0,0,8,8-1,15c0,0-11,5-9,16c0,0,3,14-11,13c0,0-11,1-11,9c0,0-2,14-15,8c0,0-10-5-16,4c0,0-9,10-17-1c0,0-7-7-15-3
		c0,0-10,7-15-7c0,0-2-11-13-9c0,0-11,1-10-13c0,0,3-12-7-15c0,0-11-5-3-16c0,0,6-8,0-15c0,0-8-9,2-16c0,0,9-3,8-11c0,0-4-20,11-17
		c0,0,10,2,11-9c0,0,2-15,16-8C56,12,66,18,71,8z"/>
</g>
</svg>
