<?xml version="1.0" encoding="utf-8"?>
<!-- Generator: Adobe Illustrator 22.1.0, SVG Export Plug-In . SVG Version: 6.00 Build 0)  -->
<svg version="1.1" id="Layer_2" xmlns="http://www.w3.org/2000/svg" xmlns:xlink="http://www.w3.org/1999/xlink" x="0px" y="0px"
	 viewBox="0 0 94.2 15" style="enable-background:new 0 0 94.2 15;" xml:space="preserve">

<polygon fill="#E8E8E8" stroke="#E8E8E8" stroke-width="0.5" points="0.8,7.3 6.6,5.3 8.4,0.6 12.3,3.9 18.1,3.9 15.6,7.9 16.9,12.1 11.4,11.1 6.6,14.6 6.1,9.6 "/>
<polygon fill="#E8E8E8" stroke="#E8E8E8" stroke-width="0.5" points="19.7,7.3 25.5,5.3 27.3,0.6 31.1,3.9 37,3.9 34.5,7.9 35.8,12.1 30.3,11.1 25.4,14.6 25,9.6 "/>
<polygon fill="#E8E8E8" stroke="#E8E8E8" stroke-width="0.5" points="38.3,7.2 44.1,5.3 45.9,0.5 49.8,3.8 55.6,3.8 53.1,7.9 54.4,12 48.9,11.1 44.1,14.5 43.6,9.5 "/>
<polygon fill="#E8E8E8" stroke="#E8E8E8" stroke-width="0.5" points="57.3,7.2 63.1,5.3 64.8,0.5 68.7,3.8 74.6,3.8 72.1,7.9 73.4,12 67.9,11.1 63,14.5 62.6,9.5 "/>
<polygon fill="#E8E8E8" stroke="#E8E8E8" stroke-width="0.5" points="76.4,7.2 82.2,5.3 83.9,0.5 87.8,3.8 93.7,3.8 91.2,7.9 92.5,12 87,11.1 82.1,14.5 81.7,9.5 "/>
</svg>
