<svg version="1.1" xmlns="http://www.w3.org/2000/svg" xmlns:xlink="http://www.w3.org/1999/xlink" x="0px" y="0px"
	 viewBox="0 0 385 30" style="enable-background:new 0 0 385 30;" xml:space="preserve">
<g>	
	<g>
		<linearGradient id="SVGID_1_" gradientUnits="userSpaceOnUse" x1="189.5403" y1="25.2217" x2="189.5403" y2="3.1558">
			<stop  offset="5.128230e-03" style="stop-color:#FFFFFF"/>
			<stop  offset="0.2178" style="stop-color:#EFC6C9"/>
			<stop  offset="0.4939" style="stop-color:#DC8389"/>
			<stop  offset="0.7258" style="stop-color:#CF525B"/>
			<stop  offset="0.9013" style="stop-color:#C6333E"/>
			<stop  offset="1" style="stop-color:#C32833"/>
		</linearGradient>
		<path fill="url(#SVGID_1_)" d="M1.3,23.1V3.4h6.8c2.5,0,4.4,0.4,5.8,1.3C15.3,5.7,16,7,16,8.8c0,0.9-0.3,1.8-0.8,2.5
			C14.7,12,14,12.5,13,12.9c1.3,0.2,2.3,0.8,3,1.6c0.6,0.8,1,1.8,1,2.9c0,1.9-0.7,3.3-2,4.3c-1.3,1-3.2,1.5-5.7,1.5H1.3z M5.9,11.8
			h2.4c1,0,1.7-0.2,2.3-0.7c0.5-0.4,0.8-1.1,0.8-1.9c0-0.9-0.3-1.6-0.8-2.1S9.2,6.4,8.1,6.4H5.9V11.8z M5.9,14.4v5.7h3.4
			c1,0,1.8-0.2,2.3-0.7c0.5-0.5,0.8-1.1,0.8-2.1c0-0.9-0.2-1.7-0.7-2.2c-0.5-0.5-1.2-0.8-2.2-0.8H9.3H5.9z"/>
		<linearGradient id="SVGID_2_" gradientUnits="userSpaceOnUse" x1="189.5403" y1="25.2217" x2="189.5403" y2="3.1558">
			<stop  offset="5.128230e-03" style="stop-color:#FFFFFF"/>
			<stop  offset="0.2178" style="stop-color:#EFC6C9"/>
			<stop  offset="0.4939" style="stop-color:#DC8389"/>
			<stop  offset="0.7258" style="stop-color:#CF525B"/>
			<stop  offset="0.9013" style="stop-color:#C6333E"/>
			<stop  offset="1" style="stop-color:#C32833"/>
		</linearGradient>
		<path fill="url(#SVGID_2_)" d="M36.6,3.4v12.8c0,2.2-0.8,4-2.3,5.2c-1.6,1.3-3.6,1.9-6.1,1.9c-2.5,0-4.5-0.6-6-1.9c-1.5-1.3-2.3-3-2.3-5.2
			V3.4h4.6v12.8c0,1.3,0.3,2.4,1,3.1c0.7,0.7,1.6,1.1,2.8,1.1c1.2,0,2.1-0.4,2.8-1.1s1-1.7,1-3.1V3.4H36.6z"/>
		<linearGradient id="SVGID_3_" gradientUnits="userSpaceOnUse" x1="189.5403" y1="25.2217" x2="189.5403" y2="3.1558">
			<stop  offset="5.128230e-03" style="stop-color:#FFFFFF"/>
			<stop  offset="0.2178" style="stop-color:#EFC6C9"/>
			<stop  offset="0.4939" style="stop-color:#DC8389"/>
			<stop  offset="0.7258" style="stop-color:#CF525B"/>
			<stop  offset="0.9013" style="stop-color:#C6333E"/>
			<stop  offset="1" style="stop-color:#C32833"/>
		</linearGradient>
		<path fill="url(#SVGID_3_)" d="M44.6,15.2v7.9H40V3.5h7.1c2.4,0,4.2,0.5,5.6,1.5s2,2.4,2,4.3c0,1-0.3,1.9-0.9,2.6c-0.6,0.7-1.4,1.3-2.5,1.8
			c1.2,0.3,2.1,0.9,2.7,1.7c0.5,0.8,0.8,1.8,0.8,3v1.4c0,0.5,0.1,1.1,0.2,1.7c0.2,0.6,0.4,1,0.8,1.3v0.3h-4.8
			c-0.4-0.3-0.6-0.8-0.7-1.4c-0.1-0.7-0.2-1.3-0.2-2v-1.4c0-1-0.3-1.8-0.8-2.3c-0.5-0.5-1.2-0.8-2.2-0.8H44.6z M44.6,12.2h2.5
			c1,0,1.7-0.2,2.3-0.7c0.5-0.5,0.8-1.2,0.8-2.1c0-0.9-0.3-1.6-0.8-2.2c-0.5-0.5-1.3-0.8-2.2-0.8h-2.5V12.2z"/>
		<linearGradient id="SVGID_4_" gradientUnits="userSpaceOnUse" x1="189.5403" y1="25.2217" x2="189.5403" y2="3.1558">
			<stop  offset="5.128230e-03" style="stop-color:#FFFFFF"/>
			<stop  offset="0.2178" style="stop-color:#EFC6C9"/>
			<stop  offset="0.4939" style="stop-color:#DC8389"/>
			<stop  offset="0.7258" style="stop-color:#CF525B"/>
			<stop  offset="0.9013" style="stop-color:#C6333E"/>
			<stop  offset="1" style="stop-color:#C32833"/>
		</linearGradient>
		<path fill="url(#SVGID_4_)" d="M75.3,23.1h-4.6l-7.5-12.5l-0.1,0v12.5h-4.6V3.4h4.6L70.6,16l0.1,0V3.4h4.6V23.1z"/>
		<linearGradient id="SVGID_5_" gradientUnits="userSpaceOnUse" x1="189.5403" y1="25.2217" x2="189.5403" y2="3.1558">
			<stop  offset="5.128230e-03" style="stop-color:#FFFFFF"/>
			<stop  offset="0.2178" style="stop-color:#EFC6C9"/>
			<stop  offset="0.4939" style="stop-color:#DC8389"/>
			<stop  offset="0.7258" style="stop-color:#CF525B"/>
			<stop  offset="0.9013" style="stop-color:#C6333E"/>
			<stop  offset="1" style="stop-color:#C32833"/>
		</linearGradient>
		<path fill="url(#SVGID_5_)" d="M98.5,14.9H91v8.2h-4.6V3.4H100v3h-9v5.5h7.5V14.9z"/>
		<linearGradient id="SVGID_6_" gradientUnits="userSpaceOnUse" x1="189.5403" y1="25.2217" x2="189.5403" y2="3.1558">
			<stop  offset="5.128230e-03" style="stop-color:#FFFFFF"/>
			<stop  offset="0.2178" style="stop-color:#EFC6C9"/>
			<stop  offset="0.4939" style="stop-color:#DC8389"/>
			<stop  offset="0.7258" style="stop-color:#CF525B"/>
			<stop  offset="0.9013" style="stop-color:#C6333E"/>
			<stop  offset="1" style="stop-color:#C32833"/>
		</linearGradient>
		<path fill="url(#SVGID_6_)" d="M113.2,18.8h-5.9l-1.3,4.3h-4.8l6.7-19.6h4.8l6.7,19.6h-4.8L113.2,18.8z M108.2,15.8h4l-2-6.2h-0.1
			L108.2,15.8z"/>
		<linearGradient id="SVGID_7_" gradientUnits="userSpaceOnUse" x1="189.5403" y1="25.2217" x2="189.5403" y2="3.1558">
			<stop  offset="5.128230e-03" style="stop-color:#FFFFFF"/>
			<stop  offset="0.2178" style="stop-color:#EFC6C9"/>
			<stop  offset="0.4939" style="stop-color:#DC8389"/>
			<stop  offset="0.7258" style="stop-color:#CF525B"/>
			<stop  offset="0.9013" style="stop-color:#C6333E"/>
			<stop  offset="1" style="stop-color:#C32833"/>
		</linearGradient>
		<path fill="url(#SVGID_7_)" d="M135.6,6.4H130v16.7h-4.6V6.4h-5.4v-3h15.6V6.4z"/>
		<linearGradient id="SVGID_8_" gradientUnits="userSpaceOnUse" x1="189.5403" y1="25.2217" x2="189.5403" y2="3.1558">
			<stop  offset="5.128230e-03" style="stop-color:#FFFFFF"/>
			<stop  offset="0.2178" style="stop-color:#EFC6C9"/>
			<stop  offset="0.4939" style="stop-color:#DC8389"/>
			<stop  offset="0.7258" style="stop-color:#CF525B"/>
			<stop  offset="0.9013" style="stop-color:#C6333E"/>
			<stop  offset="1" style="stop-color:#C32833"/>
		</linearGradient>
		<path fill="url(#SVGID_8_)" d="M162.1,16c0,0.9-0.1,1.7-0.4,2.5c-0.3,0.8-0.6,1.4-1.1,2l2.9,2.7l-3,2l-2.8-2.6c-0.6,0.3-1.3,0.5-2,0.6
			c-0.7,0.1-1.5,0.2-2.3,0.2c-2.6,0-4.7-0.6-6.3-1.9s-2.4-3.1-2.4-5.4v-5.5c0-2.3,0.8-4.1,2.3-5.4c1.6-1.3,3.7-2,6.3-2
			s4.7,0.7,6.3,2c1.6,1.3,2.4,3.1,2.4,5.4V16z M157.5,10.5c0-1.4-0.4-2.5-1.1-3.2c-0.7-0.7-1.7-1.1-3-1.1c-1.3,0-2.3,0.4-3,1.1
			c-0.7,0.7-1,1.8-1,3.2V16c0,1.5,0.3,2.5,1,3.3c0.7,0.7,1.7,1.1,3,1.1s2.4-0.4,3-1.1c0.7-0.7,1-1.8,1-3.3V10.5z"/>
		<linearGradient id="SVGID_9_" gradientUnits="userSpaceOnUse" x1="189.5403" y1="25.2217" x2="189.5403" y2="3.1558">
			<stop  offset="5.128230e-03" style="stop-color:#FFFFFF"/>
			<stop  offset="0.2178" style="stop-color:#EFC6C9"/>
			<stop  offset="0.4939" style="stop-color:#DC8389"/>
			<stop  offset="0.7258" style="stop-color:#CF525B"/>
			<stop  offset="0.9013" style="stop-color:#C6333E"/>
			<stop  offset="1" style="stop-color:#C32833"/>
		</linearGradient>
		<path fill="url(#SVGID_9_)" d="M182.4,3.4v12.8c0,2.2-0.8,4-2.3,5.2c-1.6,1.3-3.6,1.9-6.1,1.9c-2.5,0-4.5-0.6-6-1.9c-1.5-1.3-2.3-3-2.3-5.2
			V3.4h4.6v12.8c0,1.3,0.3,2.4,1,3.1c0.7,0.7,1.6,1.1,2.8,1.1c1.2,0,2.1-0.4,2.8-1.1s1-1.7,1-3.1V3.4H182.4z"/>
		<linearGradient id="SVGID_10_" gradientUnits="userSpaceOnUse" x1="189.5403" y1="25.2217" x2="189.5403" y2="3.1558">
			<stop  offset="5.128230e-03" style="stop-color:#FFFFFF"/>
			<stop  offset="0.2178" style="stop-color:#EFC6C9"/>
			<stop  offset="0.4939" style="stop-color:#DC8389"/>
			<stop  offset="0.7258" style="stop-color:#CF525B"/>
			<stop  offset="0.9013" style="stop-color:#C6333E"/>
			<stop  offset="1" style="stop-color:#C32833"/>
		</linearGradient>
		<path fill="url(#SVGID_10_)" d="M190.7,23.1h-4.6V3.4h4.6V23.1z"/>
		<linearGradient id="SVGID_11_" gradientUnits="userSpaceOnUse" x1="189.5403" y1="25.2217" x2="189.5403" y2="3.1558">
			<stop  offset="5.128230e-03" style="stop-color:#FFFFFF"/>
			<stop  offset="0.2178" style="stop-color:#EFC6C9"/>
			<stop  offset="0.4939" style="stop-color:#DC8389"/>
			<stop  offset="0.7258" style="stop-color:#CF525B"/>
			<stop  offset="0.9013" style="stop-color:#C6333E"/>
			<stop  offset="1" style="stop-color:#C32833"/>
		</linearGradient>
		<path fill="url(#SVGID_11_)" d="M210.2,17L210.2,17c0.1,2.2-0.6,3.8-1.9,4.8c-1.3,1-3.3,1.6-5.8,1.6c-2.6,0-4.6-0.6-6.1-1.9s-2.3-3-2.3-5.3
			v-5.8c0-2.3,0.7-4.1,2.2-5.3c1.5-1.3,3.4-1.9,5.9-1.9c2.6,0,4.6,0.5,6,1.6c1.4,1,2.1,2.6,2,4.7l0,0.1h-4.5c0-1.3-0.3-2.1-0.8-2.6
			c-0.5-0.5-1.4-0.8-2.7-0.8c-1.2,0-2,0.3-2.6,1c-0.6,0.7-0.9,1.7-0.9,3.2v5.9c0,1.4,0.3,2.5,0.9,3.2c0.6,0.7,1.6,1,2.8,1
			c1.1,0,2-0.3,2.5-0.7c0.5-0.5,0.8-1.4,0.8-2.7H210.2z"/>
		<linearGradient id="SVGID_12_" gradientUnits="userSpaceOnUse" x1="189.5403" y1="25.2217" x2="189.5403" y2="3.1558">
			<stop  offset="5.128230e-03" style="stop-color:#FFFFFF"/>
			<stop  offset="0.2178" style="stop-color:#EFC6C9"/>
			<stop  offset="0.4939" style="stop-color:#DC8389"/>
			<stop  offset="0.7258" style="stop-color:#CF525B"/>
			<stop  offset="0.9013" style="stop-color:#C6333E"/>
			<stop  offset="1" style="stop-color:#C32833"/>
		</linearGradient>
		<path fill="url(#SVGID_12_)" d="M219,14.8h-1.3v8.2h-4.6V3.4h4.6v8h0.9l5-8h5.7l-6.9,9l7.4,10.7h-5.9L219,14.8z"/>
		<linearGradient id="SVGID_13_" gradientUnits="userSpaceOnUse" x1="189.5403" y1="25.2217" x2="189.5403" y2="3.1558">
			<stop  offset="5.128230e-03" style="stop-color:#FFFFFF"/>
			<stop  offset="0.2178" style="stop-color:#EFC6C9"/>
			<stop  offset="0.4939" style="stop-color:#DC8389"/>
			<stop  offset="0.7258" style="stop-color:#CF525B"/>
			<stop  offset="0.9013" style="stop-color:#C6333E"/>
			<stop  offset="1" style="stop-color:#C32833"/>
		</linearGradient>
		<path fill="url(#SVGID_13_)" d="M243.7,14.4h-7.3v5.7h8.7v3h-13.3V3.4h13.3v3h-8.7v5h7.3V14.4z"/>
		<linearGradient id="SVGID_14_" gradientUnits="userSpaceOnUse" x1="189.5403" y1="25.2217" x2="189.5403" y2="3.1558">
			<stop  offset="5.128230e-03" style="stop-color:#FFFFFF"/>
			<stop  offset="0.2178" style="stop-color:#EFC6C9"/>
			<stop  offset="0.4939" style="stop-color:#DC8389"/>
			<stop  offset="0.7258" style="stop-color:#CF525B"/>
			<stop  offset="0.9013" style="stop-color:#C6333E"/>
			<stop  offset="1" style="stop-color:#C32833"/>
		</linearGradient>
		<path fill="url(#SVGID_14_)" d="M252.6,15.2v7.9H248V3.5h7.1c2.4,0,4.2,0.5,5.6,1.5c1.4,1,2,2.4,2,4.3c0,1-0.3,1.9-0.9,2.6
			c-0.6,0.7-1.4,1.3-2.5,1.8c1.2,0.3,2.1,0.9,2.7,1.7c0.5,0.8,0.8,1.8,0.8,3v1.4c0,0.5,0.1,1.1,0.2,1.7c0.2,0.6,0.4,1,0.8,1.3v0.3
			h-4.8c-0.4-0.3-0.6-0.8-0.7-1.4s-0.2-1.3-0.2-2v-1.4c0-1-0.3-1.8-0.8-2.3c-0.5-0.5-1.2-0.8-2.2-0.8H252.6z M252.6,12.2h2.5
			c1,0,1.7-0.2,2.3-0.7c0.5-0.5,0.8-1.2,0.8-2.1c0-0.9-0.3-1.6-0.8-2.2c-0.5-0.5-1.3-0.8-2.2-0.8h-2.5V12.2z"/>
		<linearGradient id="SVGID_15_" gradientUnits="userSpaceOnUse" x1="189.5403" y1="25.2217" x2="189.5403" y2="3.1558">
			<stop  offset="5.128230e-03" style="stop-color:#FFFFFF"/>
			<stop  offset="0.2178" style="stop-color:#EFC6C9"/>
			<stop  offset="0.4939" style="stop-color:#DC8389"/>
			<stop  offset="0.7258" style="stop-color:#CF525B"/>
			<stop  offset="0.9013" style="stop-color:#C6333E"/>
			<stop  offset="1" style="stop-color:#C32833"/>
		</linearGradient>
		<path fill="url(#SVGID_15_)" d="M276.8,12.6c-0.7-0.8-1.1-1.6-1.5-2.2c-0.3-0.7-0.5-1.4-0.5-2.1c0-1.6,0.5-2.9,1.6-3.8
			c1.1-0.9,2.5-1.3,4.4-1.3c1.6,0,2.8,0.4,3.8,1.3c1,0.9,1.5,1.9,1.5,3.2c0,0.9-0.2,1.7-0.6,2.4s-1,1.3-1.8,1.8l-1.6,1L286,17
			l0.1,0c0.3-0.5,0.5-1,0.7-1.6c0.2-0.6,0.3-1.2,0.3-1.9h3.7c0,1.3-0.2,2.4-0.5,3.5c-0.3,1-0.9,2-1.6,2.8l3.1,3.3h-5.2l-1.1-1.2
			c-0.8,0.5-1.7,0.8-2.5,1.1c-0.9,0.2-1.8,0.4-2.8,0.4c-2.1,0-3.8-0.5-5.1-1.5c-1.3-1-1.9-2.3-1.9-4c0-1.1,0.3-2,0.9-2.8
			c0.6-0.8,1.5-1.6,2.8-2.4L276.8,12.6z M280.3,20.4c0.5,0,1-0.1,1.5-0.2c0.5-0.1,1-0.3,1.5-0.5L279,15c-0.5,0.5-0.8,0.9-1,1.3
			c-0.2,0.4-0.3,0.9-0.3,1.3c0,0.8,0.2,1.5,0.7,2C278.9,20.1,279.5,20.4,280.3,20.4z M278.9,8.2c0,0.4,0.1,0.7,0.3,1.1
			s0.5,0.8,0.8,1.3l0.9-0.5c0.5-0.3,0.9-0.7,1.1-1c0.2-0.3,0.3-0.7,0.3-1.1c0-0.5-0.1-0.9-0.4-1.2c-0.3-0.3-0.7-0.5-1.2-0.5
			c-0.5,0-1,0.2-1.3,0.6C279.1,7.1,278.9,7.6,278.9,8.2z"/>
		<linearGradient id="SVGID_16_" gradientUnits="userSpaceOnUse" x1="189.5403" y1="25.2217" x2="189.5403" y2="3.1558">
			<stop  offset="5.128230e-03" style="stop-color:#FFFFFF"/>
			<stop  offset="0.2178" style="stop-color:#EFC6C9"/>
			<stop  offset="0.4939" style="stop-color:#DC8389"/>
			<stop  offset="0.7258" style="stop-color:#CF525B"/>
			<stop  offset="0.9013" style="stop-color:#C6333E"/>
			<stop  offset="1" style="stop-color:#C32833"/>
		</linearGradient>
		<path fill="url(#SVGID_16_)" d="M311.8,18L311.8,18l4.6-14.6h6v19.6h-4.6V10.7l-0.1,0l-4.3,12.4h-3.1L306,10.8l-0.1,0v12.3h-4.6V3.4h6
			L311.8,18z"/>
		<linearGradient id="SVGID_17_" gradientUnits="userSpaceOnUse" x1="189.5403" y1="25.2217" x2="189.5403" y2="3.1558">
			<stop  offset="5.128230e-03" style="stop-color:#FFFFFF"/>
			<stop  offset="0.2178" style="stop-color:#EFC6C9"/>
			<stop  offset="0.4939" style="stop-color:#DC8389"/>
			<stop  offset="0.7258" style="stop-color:#CF525B"/>
			<stop  offset="0.9013" style="stop-color:#C6333E"/>
			<stop  offset="1" style="stop-color:#C32833"/>
		</linearGradient>
		<path fill="url(#SVGID_17_)" d="M342.8,16c0,2.3-0.8,4.1-2.4,5.4s-3.7,1.9-6.3,1.9s-4.7-0.6-6.3-1.9s-2.4-3.1-2.4-5.4v-5.5
			c0-2.3,0.8-4.1,2.3-5.4c1.6-1.3,3.7-2,6.3-2c2.6,0,4.7,0.7,6.3,2c1.6,1.3,2.4,3.1,2.4,5.4V16z M338.2,10.5c0-1.4-0.4-2.5-1.1-3.2
			c-0.7-0.7-1.7-1.1-3-1.1c-1.3,0-2.3,0.4-3,1.1c-0.7,0.7-1,1.8-1,3.2V16c0,1.5,0.3,2.5,1,3.3c0.7,0.7,1.7,1.1,3,1.1s2.4-0.4,3-1.1
			c0.7-0.7,1-1.8,1-3.3V10.5z"/>
		<linearGradient id="SVGID_18_" gradientUnits="userSpaceOnUse" x1="189.5403" y1="25.2217" x2="189.5403" y2="3.1558">
			<stop  offset="5.128230e-03" style="stop-color:#FFFFFF"/>
			<stop  offset="0.2178" style="stop-color:#EFC6C9"/>
			<stop  offset="0.4939" style="stop-color:#DC8389"/>
			<stop  offset="0.7258" style="stop-color:#CF525B"/>
			<stop  offset="0.9013" style="stop-color:#C6333E"/>
			<stop  offset="1" style="stop-color:#C32833"/>
		</linearGradient>
		<path fill="url(#SVGID_18_)" d="M350.6,15.2v7.9H346V3.5h7.1c2.4,0,4.2,0.5,5.6,1.5c1.4,1,2,2.4,2,4.3c0,1-0.3,1.9-0.9,2.6
			c-0.6,0.7-1.4,1.3-2.5,1.8c1.2,0.3,2.1,0.9,2.7,1.7c0.5,0.8,0.8,1.8,0.8,3v1.4c0,0.5,0.1,1.1,0.2,1.7c0.2,0.6,0.4,1,0.8,1.3v0.3
			h-4.8c-0.4-0.3-0.6-0.8-0.7-1.4s-0.2-1.3-0.2-2v-1.4c0-1-0.3-1.8-0.8-2.3c-0.5-0.5-1.2-0.8-2.2-0.8H350.6z M350.6,12.2h2.5
			c1,0,1.7-0.2,2.3-0.7c0.5-0.5,0.8-1.2,0.8-2.1c0-0.9-0.3-1.6-0.8-2.2c-0.5-0.5-1.3-0.8-2.2-0.8h-2.5V12.2z"/>
		<linearGradient id="SVGID_19_" gradientUnits="userSpaceOnUse" x1="189.5403" y1="25.2217" x2="189.5403" y2="3.1558">
			<stop  offset="5.128230e-03" style="stop-color:#FFFFFF"/>
			<stop  offset="0.2178" style="stop-color:#EFC6C9"/>
			<stop  offset="0.4939" style="stop-color:#DC8389"/>
			<stop  offset="0.7258" style="stop-color:#CF525B"/>
			<stop  offset="0.9013" style="stop-color:#C6333E"/>
			<stop  offset="1" style="stop-color:#C32833"/>
		</linearGradient>
		<path fill="url(#SVGID_19_)" d="M376.3,14.4H369v5.7h8.7v3h-13.3V3.4h13.3v3H369v5h7.3V14.4z"/>
	</g>
	<g>
		<linearGradient id="SVGID_20_" gradientUnits="userSpaceOnUse" x1="189.5403" y1="23.9502" x2="189.5403" y2="4.1558">
			<stop  offset="0" style="stop-color:#C32833"/>
			<stop  offset="0.1611" style="stop-color:#C63335"/>
			<stop  offset="0.4475" style="stop-color:#CF523B"/>
			<stop  offset="0.8233" style="stop-color:#DC8244"/>
			<stop  offset="0.9949" style="stop-color:#E39B49"/>
		</linearGradient>
		<path fill="url(#SVGID_20_)" d="M2.3,22.1V4.4h5.8c2.3,0,4,0.4,5.3,1.2C14.5,6.3,15,7.3,15,8.8c0,0.7-0.2,1.3-0.6,1.9c-0.4,0.6-1,1-1.8,1.2
			L9,13.2l3.8,0.6c1.1,0.2,1.8,0.6,2.3,1.2c0.5,0.7,0.8,1.4,0.8,2.3c0,1.6-0.5,2.7-1.6,3.5c-1.1,0.8-2.8,1.3-5.1,1.3H2.3z
			 M4.9,21.1h4.4c1.3,0,2.2-0.3,2.9-1c0.7-0.7,1.1-1.6,1.1-2.8c0-1.2-0.3-2.1-1-2.8c-0.7-0.7-1.6-1.1-2.9-1.1l-4.5,0V21.1z
			 M4.9,12.8h3.4c1.2,0,2.2-0.3,2.9-0.9c0.5-0.4,1.1-1.3,1.1-2.7c0-1.2-0.4-2.2-1.2-2.8c-0.7-0.6-1.8-0.9-3.1-0.9H4.9V12.8z"/>
		<linearGradient id="SVGID_21_" gradientUnits="userSpaceOnUse" x1="189.5403" y1="23.9502" x2="189.5403" y2="4.1558">
			<stop  offset="0" style="stop-color:#C32833"/>
			<stop  offset="0.1611" style="stop-color:#C63335"/>
			<stop  offset="0.4475" style="stop-color:#CF523B"/>
			<stop  offset="0.8233" style="stop-color:#DC8244"/>
			<stop  offset="0.9949" style="stop-color:#E39B49"/>
		</linearGradient>
		<path fill="url(#SVGID_21_)" d="M28.2,22.4c-2.2,0-4.1-0.6-5.4-1.7c-1.3-1.1-1.9-2.5-1.9-4.4V4.4h2.6v11.8c0,1.6,0.4,2.9,1.3,3.8
			c0.9,0.9,2,1.4,3.5,1.4c1.5,0,2.6-0.5,3.5-1.4c0.8-0.9,1.3-2.2,1.3-3.8V4.4h2.6v11.8c0,1.9-0.6,3.4-2,4.4
			C32.2,21.8,30.4,22.4,28.2,22.4z"/>
		<linearGradient id="SVGID_22_" gradientUnits="userSpaceOnUse" x1="189.5403" y1="23.9502" x2="189.5403" y2="4.1558">
			<stop  offset="0" style="stop-color:#C32833"/>
			<stop  offset="0.1611" style="stop-color:#C63335"/>
			<stop  offset="0.4475" style="stop-color:#CF523B"/>
			<stop  offset="0.8233" style="stop-color:#DC8244"/>
			<stop  offset="0.9949" style="stop-color:#E39B49"/>
		</linearGradient>
		<path fill="url(#SVGID_22_)" d="M51.6,22.1c-0.1-0.2-0.1-0.4-0.2-0.6c-0.1-0.6-0.1-1.2-0.1-1.8v-1.4c0-1.3-0.3-2.3-1-3
			c-0.7-0.8-1.7-1.1-2.9-1.1h-3.8v7.9H41V4.5h6.1c2.1,0,3.8,0.4,5,1.3c1.1,0.8,1.6,2,1.6,3.5c0,0.8-0.2,1.5-0.7,2
			c-0.5,0.6-1.2,1.1-2.1,1.5l-2.7,1.1l2.8,0.8c1,0.3,1.7,0.7,2.1,1.3c0.4,0.6,0.6,1.4,0.6,2.4v1.4c0,0.6,0.1,1.3,0.3,2
			c0,0.1,0.1,0.2,0.1,0.4H51.6z M43.6,13.2h3.5c1.3,0,2.2-0.3,2.9-1c0.7-0.7,1.1-1.6,1.1-2.8c0-1.2-0.4-2.1-1-2.9
			c-0.7-0.7-1.7-1.1-3-1.1h-3.5V13.2z"/>
		<linearGradient id="SVGID_23_" gradientUnits="userSpaceOnUse" x1="189.5403" y1="23.9502" x2="189.5403" y2="4.1558">
			<stop  offset="0" style="stop-color:#C32833"/>
			<stop  offset="0.1611" style="stop-color:#C63335"/>
			<stop  offset="0.4475" style="stop-color:#CF523B"/>
			<stop  offset="0.8233" style="stop-color:#DC8244"/>
			<stop  offset="0.9949" style="stop-color:#E39B49"/>
		</linearGradient>
		<polygon fill="url(#SVGID_23_)" points="71.3,22.1 63.7,9.5 62.2,9.7 62.1,10.6 62.1,22.1 59.5,22.1 59.5,4.4 62.5,4.4 70.1,17.1 
			71.6,16.9 71.7,16 71.7,4.4 74.3,4.4 74.3,22.1 			"/>
		<linearGradient id="SVGID_24_" gradientUnits="userSpaceOnUse" x1="189.5403" y1="23.9502" x2="189.5403" y2="4.1558">
			<stop  offset="0" style="stop-color:#C32833"/>
			<stop  offset="0.1611" style="stop-color:#C63335"/>
			<stop  offset="0.4475" style="stop-color:#CF523B"/>
			<stop  offset="0.8233" style="stop-color:#DC8244"/>
			<stop  offset="0.9949" style="stop-color:#E39B49"/>
		</linearGradient>
		<polygon fill="url(#SVGID_24_)" points="87.4,22.1 87.4,4.4 99,4.4 99,5.4 90,5.4 90,12.9 97.5,12.9 97.5,13.9 90,13.9 90,22.1 			"/>
		<linearGradient id="SVGID_25_" gradientUnits="userSpaceOnUse" x1="189.5403" y1="23.9502" x2="189.5403" y2="4.1558">
			<stop  offset="0" style="stop-color:#C32833"/>
			<stop  offset="0.1611" style="stop-color:#C63335"/>
			<stop  offset="0.4475" style="stop-color:#CF523B"/>
			<stop  offset="0.8233" style="stop-color:#DC8244"/>
			<stop  offset="0.9949" style="stop-color:#E39B49"/>
		</linearGradient>
		<path fill="url(#SVGID_25_)" d="M115.3,22.1l-1.4-4.3h-7.4l-1.3,4.3h-2.7l6.1-17.6h3.3l6.1,17.6H115.3z M109.2,9.3l-2.4,7.5h6.8L111,8.6
			h-1.5L109.2,9.3z"/>
		<linearGradient id="SVGID_26_" gradientUnits="userSpaceOnUse" x1="189.5403" y1="23.9502" x2="189.5403" y2="4.1558">
			<stop  offset="0" style="stop-color:#C32833"/>
			<stop  offset="0.1611" style="stop-color:#C63335"/>
			<stop  offset="0.4475" style="stop-color:#CF523B"/>
			<stop  offset="0.8233" style="stop-color:#DC8244"/>
			<stop  offset="0.9949" style="stop-color:#E39B49"/>
		</linearGradient>
		<polygon fill="url(#SVGID_26_)" points="126.4,22.1 126.4,5.4 120.9,5.4 120.9,4.4 134.6,4.4 134.6,5.4 129,5.4 129,22.1 			"/>
		<linearGradient id="SVGID_27_" gradientUnits="userSpaceOnUse" x1="189.5403" y1="23.9502" x2="189.5403" y2="4.1558">
			<stop  offset="0" style="stop-color:#C32833"/>
			<stop  offset="0.1611" style="stop-color:#C63335"/>
			<stop  offset="0.4475" style="stop-color:#CF523B"/>
			<stop  offset="0.8233" style="stop-color:#DC8244"/>
			<stop  offset="0.9949" style="stop-color:#E39B49"/>
		</linearGradient>
		<path fill="url(#SVGID_27_)" d="M157.9,21.4l-0.6,0.2c-0.6,0.2-1.2,0.4-1.8,0.5c-0.7,0.1-1.4,0.2-2.1,0.2c-2.4,0-4.3-0.6-5.6-1.7
			c-1.3-1.1-2-2.6-2-4.6v-5.5c0-2,0.6-3.5,2-4.7c1.4-1.1,3.3-1.7,5.6-1.7c2.4,0,4.3,0.6,5.7,1.7c1.4,1.1,2,2.6,2,4.6V16
			c0,0.8-0.1,1.5-0.3,2.2c-0.2,0.6-0.5,1.2-0.9,1.7l-0.6,0.7l2.7,2.5l-1.3,0.9L157.9,21.4z M153.4,5.2c-1.6,0-2.9,0.5-3.8,1.4
			c-0.9,0.9-1.3,2.2-1.3,3.9V16c0,1.7,0.4,3,1.3,4c0.9,0.9,2.1,1.4,3.8,1.4c1.6,0,2.9-0.5,3.8-1.4c0.9-0.9,1.3-2.3,1.3-4v-5.5
			c0-1.7-0.4-3-1.3-3.9C156.3,5.6,155,5.2,153.4,5.2z"/>
		<linearGradient id="SVGID_28_" gradientUnits="userSpaceOnUse" x1="189.5403" y1="23.9502" x2="189.5403" y2="4.1558">
			<stop  offset="0" style="stop-color:#C32833"/>
			<stop  offset="0.1611" style="stop-color:#C63335"/>
			<stop  offset="0.4475" style="stop-color:#CF523B"/>
			<stop  offset="0.8233" style="stop-color:#DC8244"/>
			<stop  offset="0.9949" style="stop-color:#E39B49"/>
		</linearGradient>
		<path fill="url(#SVGID_28_)" d="M174,22.4c-2.2,0-4.1-0.6-5.4-1.7c-1.3-1.1-1.9-2.5-1.9-4.4V4.4h2.6v11.8c0,1.6,0.4,2.9,1.3,3.8
			c0.9,0.9,2,1.4,3.5,1.4c1.5,0,2.6-0.5,3.5-1.4c0.8-0.9,1.3-2.2,1.3-3.8V4.4h2.6v11.8c0,1.9-0.6,3.4-2,4.4
			C178.1,21.8,176.2,22.4,174,22.4z"/>
		<linearGradient id="SVGID_29_" gradientUnits="userSpaceOnUse" x1="189.5403" y1="23.9502" x2="189.5403" y2="4.1558">
			<stop  offset="0" style="stop-color:#C32833"/>
			<stop  offset="0.1611" style="stop-color:#C63335"/>
			<stop  offset="0.4475" style="stop-color:#CF523B"/>
			<stop  offset="0.8233" style="stop-color:#DC8244"/>
			<stop  offset="0.9949" style="stop-color:#E39B49"/>
		</linearGradient>
		<rect x="187.1" y="4.4" fill="url(#SVGID_29_)" width="2.6" height="17.6"/>
		<linearGradient id="SVGID_30_" gradientUnits="userSpaceOnUse" x1="189.5403" y1="23.9502" x2="189.5403" y2="4.1558">
			<stop  offset="0" style="stop-color:#C32833"/>
			<stop  offset="0.1611" style="stop-color:#C63335"/>
			<stop  offset="0.4475" style="stop-color:#CF523B"/>
			<stop  offset="0.8233" style="stop-color:#DC8244"/>
			<stop  offset="0.9949" style="stop-color:#E39B49"/>
		</linearGradient>
		<path fill="url(#SVGID_30_)" d="M202.5,22.4c-2.3,0-4.1-0.6-5.5-1.6c-1.3-1.1-1.9-2.5-1.9-4.5v-5.8c0-2,0.6-3.5,1.8-4.6
			c1.3-1.1,3-1.6,5.2-1.6c2.4,0,4.2,0.5,5.4,1.4c0.9,0.7,1.5,1.7,1.6,3h-2.5c-0.1-1-0.5-1.8-1.1-2.4c-0.7-0.7-1.8-1-3.4-1
			c-1.5,0-2.6,0.5-3.4,1.4c-0.7,0.9-1.1,2.1-1.1,3.8v5.9c0,1.7,0.4,3,1.2,3.8c0.8,0.9,2,1.4,3.6,1.4c1.4,0,2.5-0.4,3.2-1
			c0.5-0.5,0.9-1.3,1-2.4h2.5c-0.1,1.3-0.6,2.3-1.5,3C206.5,21.9,204.8,22.4,202.5,22.4z"/>
		<linearGradient id="SVGID_31_" gradientUnits="userSpaceOnUse" x1="189.5403" y1="23.9502" x2="189.5403" y2="4.1558">
			<stop  offset="0" style="stop-color:#C32833"/>
			<stop  offset="0.1611" style="stop-color:#C63335"/>
			<stop  offset="0.4475" style="stop-color:#CF523B"/>
			<stop  offset="0.8233" style="stop-color:#DC8244"/>
			<stop  offset="0.9949" style="stop-color:#E39B49"/>
		</linearGradient>
		<polygon fill="url(#SVGID_31_)" points="224.6,22.1 219.6,13.8 216.7,13.8 216.7,22.1 214.1,22.1 214.1,4.4 216.7,4.4 216.7,12.5 
			219.2,12.5 224.3,4.4 227.4,4.4 221.4,12.4 228.1,22.1 			"/>
		<linearGradient id="SVGID_32_" gradientUnits="userSpaceOnUse" x1="189.5403" y1="23.9502" x2="189.5403" y2="4.1558">
			<stop  offset="0" style="stop-color:#C32833"/>
			<stop  offset="0.1611" style="stop-color:#C63335"/>
			<stop  offset="0.4475" style="stop-color:#CF523B"/>
			<stop  offset="0.8233" style="stop-color:#DC8244"/>
			<stop  offset="0.9949" style="stop-color:#E39B49"/>
		</linearGradient>
		<polygon fill="url(#SVGID_32_)" points="232.8,22.1 232.8,4.4 244.1,4.4 244.1,5.4 235.4,5.4 235.4,12.4 242.7,12.4 242.7,13.4 235.4,13.4 
			235.4,21.1 244.1,21.1 244.1,22.1 			"/>
		<linearGradient id="SVGID_33_" gradientUnits="userSpaceOnUse" x1="189.5403" y1="23.9502" x2="189.5403" y2="4.1558">
			<stop  offset="0" style="stop-color:#C32833"/>
			<stop  offset="0.1611" style="stop-color:#C63335"/>
			<stop  offset="0.4475" style="stop-color:#CF523B"/>
			<stop  offset="0.8233" style="stop-color:#DC8244"/>
			<stop  offset="0.9949" style="stop-color:#E39B49"/>
		</linearGradient>
		<path fill="url(#SVGID_33_)" d="M259.6,22.1c-0.1-0.2-0.1-0.4-0.2-0.6c-0.1-0.6-0.1-1.2-0.1-1.8v-1.4c0-1.3-0.3-2.3-1-3
			c-0.7-0.8-1.7-1.1-2.9-1.1h-3.8v7.9H249V4.5h6.1c2.1,0,3.8,0.4,5,1.3c1.1,0.8,1.6,2,1.6,3.5c0,0.8-0.2,1.5-0.7,2
			c-0.5,0.6-1.2,1.1-2.1,1.5l-2.7,1.1l2.8,0.8c1,0.3,1.7,0.7,2.1,1.3c0.4,0.6,0.6,1.4,0.6,2.4v1.4c0,0.6,0.1,1.3,0.3,2
			c0,0.1,0.1,0.2,0.1,0.4H259.6z M251.6,13.2h3.5c1.3,0,2.2-0.3,2.9-1c0.7-0.7,1.1-1.6,1.1-2.8c0-1.2-0.4-2.1-1-2.9
			c-0.7-0.7-1.7-1.1-3-1.1h-3.5V13.2z"/>
		<linearGradient id="SVGID_34_" gradientUnits="userSpaceOnUse" x1="189.5403" y1="23.9502" x2="189.5403" y2="4.1558">
			<stop  offset="0" style="stop-color:#C32833"/>
			<stop  offset="0.1611" style="stop-color:#C63335"/>
			<stop  offset="0.4475" style="stop-color:#CF523B"/>
			<stop  offset="0.8233" style="stop-color:#DC8244"/>
			<stop  offset="0.9949" style="stop-color:#E39B49"/>
		</linearGradient>
		<path fill="url(#SVGID_34_)" d="M280,22.4c-1.9,0-3.4-0.4-4.5-1.3c-1-0.8-1.5-1.9-1.5-3.2c0-0.8,0.2-1.6,0.7-2.2c0.5-0.7,1.4-1.4,2.5-2.2
			l1-0.6l-0.7-0.9c-0.6-0.8-1.1-1.4-1.3-2c-0.3-0.5-0.4-1.1-0.4-1.6c0-1.3,0.4-2.3,1.2-3c0.9-0.7,2.1-1.1,3.7-1.1
			c1.3,0,2.4,0.3,3.2,1.1c0.8,0.7,1.1,1.5,1.1,2.5c0,0.8-0.2,1.4-0.5,1.9c-0.3,0.5-0.8,1.1-1.5,1.5l-2.5,1.6l5,5.4l1-0.1l0.3-0.4
			c0.3-0.5,0.6-1.2,0.8-1.8c0.1-0.4,0.2-0.8,0.2-1.2h1.7c-0.1,0.8-0.2,1.5-0.4,2.2c-0.3,0.9-0.8,1.7-1.4,2.4l-0.6,0.7l2.1,2.3h-2.5
			l-1.3-1.4l-0.7,0.4c-0.8,0.4-1.5,0.8-2.3,1C281.8,22.3,280.9,22.4,280,22.4z M278.3,14.3c-0.6,0.6-1,1.1-1.3,1.7
			c-0.2,0.6-0.4,1.1-0.4,1.7c0,1.1,0.3,2,1,2.7c0.7,0.7,1.6,1.1,2.6,1.1c0.6,0,1.2-0.1,1.7-0.2c0.6-0.1,1.1-0.3,1.7-0.6l1.2-0.6
			l-5.9-6.4L278.3,14.3z M280.7,5.1c-0.8,0-1.6,0.3-2.1,1c-0.4,0.6-0.7,1.3-0.7,2.1c0,0.5,0.1,1,0.4,1.6c0.2,0.5,0.5,0.9,1,1.4
			l0.6,0.7l1.6-1c0.7-0.4,1.2-0.9,1.5-1.4c0.3-0.5,0.4-1,0.4-1.6c0-0.7-0.2-1.3-0.7-1.9C282.3,5.6,281.7,5.1,280.7,5.1z"/>
		<linearGradient id="SVGID_35_" gradientUnits="userSpaceOnUse" x1="189.5403" y1="23.9502" x2="189.5403" y2="4.1558">
			<stop  offset="0" style="stop-color:#C32833"/>
			<stop  offset="0.1611" style="stop-color:#C63335"/>
			<stop  offset="0.4475" style="stop-color:#CF523B"/>
			<stop  offset="0.8233" style="stop-color:#DC8244"/>
			<stop  offset="0.9949" style="stop-color:#E39B49"/>
		</linearGradient>
		<polygon fill="url(#SVGID_35_)" points="318.8,22.1 318.8,9.8 317.1,9.6 316.7,10.4 312.7,22.1 311,22.1 306.7,9.7 305,9.9 304.9,10.8 
			304.9,22.1 302.3,22.1 302.3,4.4 306.6,4.4 311,19 312.5,19 312.8,18.3 317.1,4.4 321.3,4.4 321.3,22.1 			"/>
		<linearGradient id="SVGID_36_" gradientUnits="userSpaceOnUse" x1="189.5403" y1="23.9502" x2="189.5403" y2="4.1558">
			<stop  offset="0" style="stop-color:#C32833"/>
			<stop  offset="0.1611" style="stop-color:#C63335"/>
			<stop  offset="0.4475" style="stop-color:#CF523B"/>
			<stop  offset="0.8233" style="stop-color:#DC8244"/>
			<stop  offset="0.9949" style="stop-color:#E39B49"/>
		</linearGradient>
		<path fill="url(#SVGID_36_)" d="M334.1,22.4c-2.4,0-4.3-0.6-5.6-1.7c-1.3-1.1-2-2.6-2-4.6v-5.5c0-2,0.6-3.5,2-4.7c1.4-1.1,3.3-1.7,5.6-1.7
			c2.4,0,4.3,0.6,5.7,1.7c1.4,1.1,2,2.6,2,4.6V16c0,2-0.7,3.5-2,4.6C338.4,21.8,336.5,22.4,334.1,22.4z M334.1,5.2
			c-1.6,0-2.9,0.5-3.8,1.4c-0.9,0.9-1.3,2.2-1.3,3.9V16c0,1.7,0.4,3,1.3,4c0.9,0.9,2.1,1.4,3.8,1.4c1.6,0,2.9-0.5,3.8-1.4
			c0.9-0.9,1.3-2.3,1.3-4v-5.5c0-1.7-0.4-3-1.3-3.9C337,5.6,335.7,5.2,334.1,5.2z"/>
		<linearGradient id="SVGID_37_" gradientUnits="userSpaceOnUse" x1="189.5403" y1="23.9502" x2="189.5403" y2="4.1558">
			<stop  offset="0" style="stop-color:#C32833"/>
			<stop  offset="0.1611" style="stop-color:#C63335"/>
			<stop  offset="0.4475" style="stop-color:#CF523B"/>
			<stop  offset="0.8233" style="stop-color:#DC8244"/>
			<stop  offset="0.9949" style="stop-color:#E39B49"/>
		</linearGradient>
		<path fill="url(#SVGID_37_)" d="M357.6,22.1c-0.1-0.2-0.1-0.4-0.2-0.6c-0.1-0.6-0.1-1.2-0.1-1.8v-1.4c0-1.3-0.3-2.3-1-3
			c-0.7-0.8-1.7-1.1-2.9-1.1h-3.8v7.9H347V4.5h6.1c2.1,0,3.8,0.4,5,1.3c1.1,0.8,1.6,2,1.6,3.5c0,0.8-0.2,1.5-0.7,2
			c-0.5,0.6-1.2,1.1-2.1,1.5l-2.7,1.1l2.8,0.8c1,0.3,1.7,0.7,2.1,1.3c0.4,0.6,0.6,1.4,0.6,2.4v1.4c0,0.6,0.1,1.3,0.3,2
			c0,0.1,0.1,0.2,0.1,0.4H357.6z M349.6,13.2h3.5c1.3,0,2.2-0.3,2.9-1c0.7-0.7,1.1-1.6,1.1-2.8c0-1.2-0.4-2.1-1-2.9
			c-0.7-0.7-1.7-1.1-3-1.1h-3.5V13.2z"/>
		<linearGradient id="SVGID_38_" gradientUnits="userSpaceOnUse" x1="189.5403" y1="23.9502" x2="189.5403" y2="4.1558">
			<stop  offset="0" style="stop-color:#C32833"/>
			<stop  offset="0.1611" style="stop-color:#C63335"/>
			<stop  offset="0.4475" style="stop-color:#CF523B"/>
			<stop  offset="0.8233" style="stop-color:#DC8244"/>
			<stop  offset="0.9949" style="stop-color:#E39B49"/>
		</linearGradient>
		<polygon fill="url(#SVGID_38_)" points="365.4,22.1 365.4,4.4 376.7,4.4 376.7,5.4 368,5.4 368,12.4 375.3,12.4 375.3,13.4 368,13.4 
			368,21.1 376.8,21.1 376.8,22.1 			"/>
	</g>
</g>
</svg>
