<svg version="1.1" xmlns="http://www.w3.org/2000/svg" xmlns:xlink="http://www.w3.org/1999/xlink" x="0px" y="0px"
	 viewBox="0 0 385 38" style="enable-background:new 0 0 385 38;" xml:space="preserve">
<style type="text/css">
	.st0{fill:url(#SVGID_1_);}
	.st1{fill:url(#SVGID_2_);}
	.st2{fill:url(#SVGID_3_);}
	.st3{fill:url(#SVGID_4_);}
	.st4{fill:url(#SVGID_5_);}
	.st5{fill:url(#SVGID_6_);}
	.st6{fill:url(#SVGID_7_);}
	.st7{fill:url(#SVGID_8_);}
	.st8{fill:url(#SVGID_9_);}
	.st9{fill:url(#SVGID_10_);}
	.st10{fill:url(#SVGID_11_);}
	.st11{fill:url(#SVGID_12_);}
	.st12{fill:url(#SVGID_13_);}
	.st13{fill:url(#SVGID_14_);}
	.st14{fill:url(#SVGID_15_);}
	.st15{fill:url(#SVGID_16_);}
	.st16{fill:url(#SVGID_17_);}
	.st17{fill:url(#SVGID_18_);}
	.st18{fill:url(#SVGID_19_);}
	.st19{fill:url(#SVGID_20_);}
	.st20{fill:url(#SVGID_21_);}
	.st21{fill:url(#SVGID_22_);}
	.st22{fill:url(#SVGID_23_);}
	.st23{fill:url(#SVGID_24_);}
	.st24{fill:url(#SVGID_25_);}
	.st25{fill:url(#SVGID_26_);}
	.st26{fill:url(#SVGID_27_);}
	.st27{fill:url(#SVGID_28_);}
	.st28{fill:url(#SVGID_29_);}
	.st29{fill:url(#SVGID_30_);}
	.st30{fill:url(#SVGID_31_);}
	.st31{fill:url(#SVGID_32_);}
	.st32{fill:url(#SVGID_33_);}
	.st33{fill:url(#SVGID_34_);}
	.st34{fill:url(#SVGID_35_);}
	.st35{fill:url(#SVGID_36_);}
	.st36{fill:url(#SVGID_37_);}
	.st37{fill:url(#SVGID_38_);}
</style>
<g>	
	<g>
		<linearGradient id="SVGID_1_" gradientUnits="userSpaceOnUse" x1="189.5403" y1="32.2891" x2="189.5403" y2="4.6499">
			<stop  offset="0" style="stop-color:#C32833"/>
			<stop  offset="9.866530e-02" style="stop-color:#C6333E"/>
			<stop  offset="0.2742" style="stop-color:#CF525B"/>
			<stop  offset="0.5061" style="stop-color:#DC8389"/>
			<stop  offset="0.7822" style="stop-color:#EFC6C9"/>
			<stop  offset="0.9949" style="stop-color:#FFFFFF"/>
		</linearGradient>
		<path class="st0" d="M1.3,29.6V5h6.8c2.5,0,4.4,0.6,5.8,1.7c1.4,1.1,2.1,2.8,2.1,5c0,1.2-0.3,2.2-0.8,3.1c-0.5,0.9-1.3,1.6-2.2,2
			c1.3,0.3,2.3,0.9,3,2s1,2.2,1,3.6c0,2.4-0.7,4.1-2,5.3c-1.3,1.2-3.2,1.8-5.7,1.8H1.3z M5.9,15.4h2.4c1,0,1.7-0.3,2.3-0.9
			s0.8-1.4,0.8-2.4c0-1.2-0.3-2-0.8-2.6S9.2,8.7,8.1,8.7H5.9V15.4z M5.9,18.7v7.2h3.4c1,0,1.8-0.3,2.3-0.9c0.5-0.6,0.8-1.4,0.8-2.6
			c0-1.2-0.2-2.1-0.7-2.7c-0.5-0.6-1.2-1-2.2-1H9.3H5.9z"/>
		<linearGradient id="SVGID_2_" gradientUnits="userSpaceOnUse" x1="189.5403" y1="32.2891" x2="189.5403" y2="4.6499">
			<stop  offset="0" style="stop-color:#C32833"/>
			<stop  offset="9.866530e-02" style="stop-color:#C6333E"/>
			<stop  offset="0.2742" style="stop-color:#CF525B"/>
			<stop  offset="0.5061" style="stop-color:#DC8389"/>
			<stop  offset="0.7822" style="stop-color:#EFC6C9"/>
			<stop  offset="0.9949" style="stop-color:#FFFFFF"/>
		</linearGradient>
		<path class="st1" d="M36.6,5v16.1c0,2.8-0.8,5-2.3,6.5S30.7,30,28.2,30c-2.5,0-4.5-0.8-6-2.4c-1.5-1.6-2.3-3.8-2.3-6.5V5h4.6
			v16.1c0,1.7,0.3,3,1,3.8c0.7,0.9,1.6,1.3,2.8,1.3c1.2,0,2.1-0.4,2.8-1.3s1-2.2,1-3.9V5H36.6z"/>
		<linearGradient id="SVGID_3_" gradientUnits="userSpaceOnUse" x1="189.5403" y1="32.2891" x2="189.5403" y2="4.6499">
			<stop  offset="0" style="stop-color:#C32833"/>
			<stop  offset="9.866530e-02" style="stop-color:#C6333E"/>
			<stop  offset="0.2742" style="stop-color:#CF525B"/>
			<stop  offset="0.5061" style="stop-color:#DC8389"/>
			<stop  offset="0.7822" style="stop-color:#EFC6C9"/>
			<stop  offset="0.9949" style="stop-color:#FFFFFF"/>
		</linearGradient>
		<path class="st2" d="M44.6,19.7v9.9H40V5h7.1c2.4,0,4.2,0.6,5.6,1.9s2,3,2,5.3c0,1.3-0.3,2.4-0.9,3.3c-0.6,0.9-1.4,1.7-2.5,2.2
			c1.2,0.4,2.1,1.1,2.7,2.1c0.5,1,0.8,2.2,0.8,3.7v1.8c0,0.7,0.1,1.4,0.2,2.2c0.2,0.8,0.4,1.3,0.8,1.7v0.4h-4.8
			c-0.4-0.4-0.6-0.9-0.7-1.8c-0.1-0.8-0.2-1.6-0.2-2.4v-1.7c0-1.3-0.3-2.2-0.8-2.9c-0.5-0.7-1.2-1-2.2-1H44.6z M44.6,16h2.5
			c1,0,1.7-0.3,2.3-0.9s0.8-1.5,0.8-2.6c0-1.1-0.3-2.1-0.8-2.7c-0.5-0.7-1.3-1-2.2-1h-2.5V16z"/>
		<linearGradient id="SVGID_4_" gradientUnits="userSpaceOnUse" x1="189.5403" y1="32.2891" x2="189.5403" y2="4.6499">
			<stop  offset="0" style="stop-color:#C32833"/>
			<stop  offset="9.866530e-02" style="stop-color:#C6333E"/>
			<stop  offset="0.2742" style="stop-color:#CF525B"/>
			<stop  offset="0.5061" style="stop-color:#DC8389"/>
			<stop  offset="0.7822" style="stop-color:#EFC6C9"/>
			<stop  offset="0.9949" style="stop-color:#FFFFFF"/>
		</linearGradient>
		<path class="st3" d="M75.3,29.6h-4.6l-7.5-15.7l-0.1,0v15.7h-4.6V5h4.6l7.5,15.7l0.1,0V5h4.6V29.6z"/>
		<linearGradient id="SVGID_5_" gradientUnits="userSpaceOnUse" x1="189.5403" y1="32.2891" x2="189.5403" y2="4.6499">
			<stop  offset="0" style="stop-color:#C32833"/>
			<stop  offset="9.866530e-02" style="stop-color:#C6333E"/>
			<stop  offset="0.2742" style="stop-color:#CF525B"/>
			<stop  offset="0.5061" style="stop-color:#DC8389"/>
			<stop  offset="0.7822" style="stop-color:#EFC6C9"/>
			<stop  offset="0.9949" style="stop-color:#FFFFFF"/>
		</linearGradient>
		<path class="st4" d="M98.5,19.3H91v10.3h-4.6V5H100v3.7h-9v6.9h7.5V19.3z"/>
		<linearGradient id="SVGID_6_" gradientUnits="userSpaceOnUse" x1="189.5403" y1="32.2891" x2="189.5403" y2="4.6499">
			<stop  offset="0" style="stop-color:#C32833"/>
			<stop  offset="9.866530e-02" style="stop-color:#C6333E"/>
			<stop  offset="0.2742" style="stop-color:#CF525B"/>
			<stop  offset="0.5061" style="stop-color:#DC8389"/>
			<stop  offset="0.7822" style="stop-color:#EFC6C9"/>
			<stop  offset="0.9949" style="stop-color:#FFFFFF"/>
		</linearGradient>
		<path class="st5" d="M113.2,24.3h-5.9l-1.3,5.3h-4.8L107.8,5h4.8l6.7,24.6h-4.8L113.2,24.3z M108.2,20.5h4l-2-7.8h-0.1
			L108.2,20.5z"/>
		<linearGradient id="SVGID_7_" gradientUnits="userSpaceOnUse" x1="189.5403" y1="32.2891" x2="189.5403" y2="4.6499">
			<stop  offset="0" style="stop-color:#C32833"/>
			<stop  offset="9.866530e-02" style="stop-color:#C6333E"/>
			<stop  offset="0.2742" style="stop-color:#CF525B"/>
			<stop  offset="0.5061" style="stop-color:#DC8389"/>
			<stop  offset="0.7822" style="stop-color:#EFC6C9"/>
			<stop  offset="0.9949" style="stop-color:#FFFFFF"/>
		</linearGradient>
		<path class="st6" d="M135.6,8.7H130v20.9h-4.6V8.7h-5.4V5h15.6V8.7z"/>
		<linearGradient id="SVGID_8_" gradientUnits="userSpaceOnUse" x1="189.5403" y1="32.2891" x2="189.5403" y2="4.6499">
			<stop  offset="0" style="stop-color:#C32833"/>
			<stop  offset="9.866530e-02" style="stop-color:#C6333E"/>
			<stop  offset="0.2742" style="stop-color:#CF525B"/>
			<stop  offset="0.5061" style="stop-color:#DC8389"/>
			<stop  offset="0.7822" style="stop-color:#EFC6C9"/>
			<stop  offset="0.9949" style="stop-color:#FFFFFF"/>
		</linearGradient>
		<path class="st7" d="M162.1,20.8c0,1.1-0.1,2.2-0.4,3.1s-0.6,1.8-1.1,2.5l2.9,3.4l-3,2.5l-2.8-3.3c-0.6,0.3-1.3,0.6-2,0.7
			c-0.7,0.2-1.5,0.2-2.3,0.2c-2.6,0-4.7-0.8-6.3-2.4s-2.4-3.9-2.4-6.8v-6.9c0-2.9,0.8-5.1,2.3-6.8c1.6-1.6,3.7-2.5,6.3-2.5
			s4.7,0.8,6.3,2.5c1.6,1.6,2.4,3.9,2.4,6.8V20.8z M157.5,13.8c0-1.8-0.4-3.1-1.1-4.1c-0.7-0.9-1.7-1.4-3-1.4c-1.3,0-2.3,0.5-3,1.4
			s-1,2.3-1,4.1v6.9c0,1.8,0.3,3.2,1,4.1s1.7,1.4,3,1.4s2.4-0.5,3-1.4c0.7-0.9,1-2.3,1-4.1V13.8z"/>
		<linearGradient id="SVGID_9_" gradientUnits="userSpaceOnUse" x1="189.5403" y1="32.2891" x2="189.5403" y2="4.6499">
			<stop  offset="0" style="stop-color:#C32833"/>
			<stop  offset="9.866530e-02" style="stop-color:#C6333E"/>
			<stop  offset="0.2742" style="stop-color:#CF525B"/>
			<stop  offset="0.5061" style="stop-color:#DC8389"/>
			<stop  offset="0.7822" style="stop-color:#EFC6C9"/>
			<stop  offset="0.9949" style="stop-color:#FFFFFF"/>
		</linearGradient>
		<path class="st8" d="M182.4,5v16.1c0,2.8-0.8,5-2.3,6.5S176.5,30,174,30c-2.5,0-4.5-0.8-6-2.4c-1.5-1.6-2.3-3.8-2.3-6.5V5h4.6
			v16.1c0,1.7,0.3,3,1,3.8c0.7,0.9,1.6,1.3,2.8,1.3c1.2,0,2.1-0.4,2.8-1.3s1-2.2,1-3.9V5H182.4z"/>
		<linearGradient id="SVGID_10_" gradientUnits="userSpaceOnUse" x1="189.5403" y1="32.2891" x2="189.5403" y2="4.6499">
			<stop  offset="0" style="stop-color:#C32833"/>
			<stop  offset="9.866530e-02" style="stop-color:#C6333E"/>
			<stop  offset="0.2742" style="stop-color:#CF525B"/>
			<stop  offset="0.5061" style="stop-color:#DC8389"/>
			<stop  offset="0.7822" style="stop-color:#EFC6C9"/>
			<stop  offset="0.9949" style="stop-color:#FFFFFF"/>
		</linearGradient>
		<path class="st9" d="M190.7,29.6h-4.6V5h4.6V29.6z"/>
		<linearGradient id="SVGID_11_" gradientUnits="userSpaceOnUse" x1="189.5403" y1="32.2891" x2="189.5403" y2="4.6499">
			<stop  offset="0" style="stop-color:#C32833"/>
			<stop  offset="9.866530e-02" style="stop-color:#C6333E"/>
			<stop  offset="0.2742" style="stop-color:#CF525B"/>
			<stop  offset="0.5061" style="stop-color:#DC8389"/>
			<stop  offset="0.7822" style="stop-color:#EFC6C9"/>
			<stop  offset="0.9949" style="stop-color:#FFFFFF"/>
		</linearGradient>
		<path class="st10" d="M210.2,22l0,0.1c0,2.6-0.6,4.6-2,5.9c-1.3,1.3-3.3,2-5.8,2c-2.6,0-4.6-0.8-6.1-2.3
			c-1.5-1.6-2.3-3.8-2.3-6.7v-7.3c0-2.9,0.7-5.1,2.2-6.7c1.5-1.6,3.4-2.4,5.9-2.4c2.6,0,4.6,0.7,6,2c1.4,1.3,2.1,3.3,2,5.9l0,0.1
			h-4.5c0-1.6-0.3-2.7-0.8-3.3c-0.5-0.6-1.4-0.9-2.7-0.9c-1.2,0-2,0.4-2.6,1.3c-0.6,0.9-0.9,2.2-0.9,4V21c0,1.8,0.3,3.1,0.9,4
			c0.6,0.9,1.6,1.3,2.8,1.3c1.1,0,2-0.3,2.5-0.9c0.5-0.6,0.8-1.7,0.8-3.3H210.2z"/>
		<linearGradient id="SVGID_12_" gradientUnits="userSpaceOnUse" x1="189.5403" y1="32.2891" x2="189.5403" y2="4.6499">
			<stop  offset="0" style="stop-color:#C32833"/>
			<stop  offset="9.866530e-02" style="stop-color:#C6333E"/>
			<stop  offset="0.2742" style="stop-color:#CF525B"/>
			<stop  offset="0.5061" style="stop-color:#DC8389"/>
			<stop  offset="0.7822" style="stop-color:#EFC6C9"/>
			<stop  offset="0.9949" style="stop-color:#FFFFFF"/>
		</linearGradient>
		<path class="st11" d="M219,19.3h-1.3v10.3h-4.6V5h4.6v10.1h0.9l5-10.1h5.7l-6.9,11.2l7.4,13.4h-5.9L219,19.3z"/>
		<linearGradient id="SVGID_13_" gradientUnits="userSpaceOnUse" x1="189.5403" y1="32.2891" x2="189.5403" y2="4.6499">
			<stop  offset="0" style="stop-color:#C32833"/>
			<stop  offset="9.866530e-02" style="stop-color:#C6333E"/>
			<stop  offset="0.2742" style="stop-color:#CF525B"/>
			<stop  offset="0.5061" style="stop-color:#DC8389"/>
			<stop  offset="0.7822" style="stop-color:#EFC6C9"/>
			<stop  offset="0.9949" style="stop-color:#FFFFFF"/>
		</linearGradient>
		<path class="st12" d="M243.7,18.7h-7.3v7.2h8.7v3.7h-13.3V5h13.3v3.7h-8.7V15h7.3V18.7z"/>
		<linearGradient id="SVGID_14_" gradientUnits="userSpaceOnUse" x1="189.5403" y1="32.2891" x2="189.5403" y2="4.6499">
			<stop  offset="0" style="stop-color:#C32833"/>
			<stop  offset="9.866530e-02" style="stop-color:#C6333E"/>
			<stop  offset="0.2742" style="stop-color:#CF525B"/>
			<stop  offset="0.5061" style="stop-color:#DC8389"/>
			<stop  offset="0.7822" style="stop-color:#EFC6C9"/>
			<stop  offset="0.9949" style="stop-color:#FFFFFF"/>
		</linearGradient>
		<path class="st13" d="M252.6,19.7v9.9H248V5h7.1c2.4,0,4.2,0.6,5.6,1.9c1.4,1.3,2,3,2,5.3c0,1.3-0.3,2.4-0.9,3.3
			c-0.6,0.9-1.4,1.7-2.5,2.2c1.2,0.4,2.1,1.1,2.7,2.1c0.5,1,0.8,2.2,0.8,3.7v1.8c0,0.7,0.1,1.4,0.2,2.2s0.4,1.3,0.8,1.7v0.4h-4.8
			c-0.4-0.4-0.6-0.9-0.7-1.8c-0.1-0.8-0.2-1.6-0.2-2.4v-1.7c0-1.3-0.3-2.2-0.8-2.9c-0.5-0.7-1.2-1-2.2-1H252.6z M252.6,16h2.5
			c1,0,1.7-0.3,2.3-0.9s0.8-1.5,0.8-2.6c0-1.1-0.3-2.1-0.8-2.7c-0.5-0.7-1.3-1-2.2-1h-2.5V16z"/>
		<linearGradient id="SVGID_15_" gradientUnits="userSpaceOnUse" x1="189.5403" y1="32.2891" x2="189.5403" y2="4.6499">
			<stop  offset="0" style="stop-color:#C32833"/>
			<stop  offset="9.866530e-02" style="stop-color:#C6333E"/>
			<stop  offset="0.2742" style="stop-color:#CF525B"/>
			<stop  offset="0.5061" style="stop-color:#DC8389"/>
			<stop  offset="0.7822" style="stop-color:#EFC6C9"/>
			<stop  offset="0.9949" style="stop-color:#FFFFFF"/>
		</linearGradient>
		<path class="st14" d="M276.8,16.4c-0.7-1-1.1-2-1.5-2.8c-0.3-0.8-0.5-1.7-0.5-2.6c0-2.1,0.5-3.6,1.6-4.7c1.1-1.1,2.5-1.7,4.4-1.7
			c1.6,0,2.8,0.5,3.8,1.6c1,1.1,1.5,2.4,1.5,4c0,1.2-0.2,2.2-0.6,3s-1,1.6-1.8,2.3l-1.6,1.3L286,22l0.1,0c0.3-0.6,0.5-1.3,0.7-2
			c0.2-0.7,0.3-1.5,0.3-2.4h3.7c0,1.6-0.2,3-0.5,4.4c-0.3,1.3-0.9,2.5-1.6,3.5l3.1,4.1h-5.2l-1.1-1.5c-0.8,0.6-1.7,1.1-2.5,1.4
			c-0.9,0.3-1.8,0.4-2.8,0.4c-2.1,0-3.8-0.6-5.1-1.9c-1.3-1.3-1.9-2.9-1.9-5c0-1.3,0.3-2.5,0.9-3.5c0.6-1,1.5-2,2.8-3.1L276.8,16.4
			z M280.3,26.3c0.5,0,1-0.1,1.5-0.2c0.5-0.2,1-0.4,1.5-0.7l-4.3-5.8c-0.5,0.6-0.8,1.1-1,1.6c-0.2,0.5-0.3,1.1-0.3,1.6
			c0,1,0.2,1.8,0.7,2.5C278.9,25.9,279.5,26.3,280.3,26.3z M278.9,11c0,0.5,0.1,0.9,0.3,1.4s0.5,1,0.8,1.6l0.9-0.7
			c0.5-0.4,0.9-0.8,1.1-1.3c0.2-0.4,0.3-0.9,0.3-1.4c0-0.6-0.1-1.1-0.4-1.5c-0.3-0.4-0.7-0.7-1.2-0.7c-0.5,0-1,0.3-1.3,0.8
			C279.1,9.6,278.9,10.3,278.9,11z"/>
		<linearGradient id="SVGID_16_" gradientUnits="userSpaceOnUse" x1="189.5403" y1="32.2891" x2="189.5403" y2="4.6499">
			<stop  offset="0" style="stop-color:#C32833"/>
			<stop  offset="9.866530e-02" style="stop-color:#C6333E"/>
			<stop  offset="0.2742" style="stop-color:#CF525B"/>
			<stop  offset="0.5061" style="stop-color:#DC8389"/>
			<stop  offset="0.7822" style="stop-color:#EFC6C9"/>
			<stop  offset="0.9949" style="stop-color:#FFFFFF"/>
		</linearGradient>
		<path class="st15" d="M311.8,23.3L311.8,23.3L316.3,5h6v24.6h-4.6V14.1l-0.1,0l-4.3,15.5h-3.1L306,14.2l-0.1,0v15.4h-4.6V5h6
			L311.8,23.3z"/>
		<linearGradient id="SVGID_17_" gradientUnits="userSpaceOnUse" x1="189.5403" y1="32.2891" x2="189.5403" y2="4.6499">
			<stop  offset="0" style="stop-color:#C32833"/>
			<stop  offset="9.866530e-02" style="stop-color:#C6333E"/>
			<stop  offset="0.2742" style="stop-color:#CF525B"/>
			<stop  offset="0.5061" style="stop-color:#DC8389"/>
			<stop  offset="0.7822" style="stop-color:#EFC6C9"/>
			<stop  offset="0.9949" style="stop-color:#FFFFFF"/>
		</linearGradient>
		<path class="st16" d="M342.8,20.8c0,2.9-0.8,5.2-2.4,6.8s-3.7,2.4-6.3,2.4s-4.7-0.8-6.3-2.4s-2.4-3.9-2.4-6.8v-6.9
			c0-2.9,0.8-5.1,2.3-6.8c1.6-1.6,3.7-2.5,6.3-2.5c2.6,0,4.7,0.8,6.3,2.5c1.6,1.6,2.4,3.9,2.4,6.8V20.8z M338.2,13.8
			c0-1.8-0.4-3.1-1.1-4.1c-0.7-0.9-1.7-1.4-3-1.4c-1.3,0-2.3,0.5-3,1.4c-0.7,0.9-1,2.3-1,4.1v6.9c0,1.8,0.3,3.2,1,4.1
			s1.7,1.4,3,1.4s2.4-0.5,3-1.4c0.7-0.9,1-2.3,1-4.1V13.8z"/>
		<linearGradient id="SVGID_18_" gradientUnits="userSpaceOnUse" x1="189.5403" y1="32.2891" x2="189.5403" y2="4.6499">
			<stop  offset="0" style="stop-color:#C32833"/>
			<stop  offset="9.866530e-02" style="stop-color:#C6333E"/>
			<stop  offset="0.2742" style="stop-color:#CF525B"/>
			<stop  offset="0.5061" style="stop-color:#DC8389"/>
			<stop  offset="0.7822" style="stop-color:#EFC6C9"/>
			<stop  offset="0.9949" style="stop-color:#FFFFFF"/>
		</linearGradient>
		<path class="st17" d="M350.6,19.7v9.9H346V5h7.1c2.4,0,4.2,0.6,5.6,1.9c1.4,1.3,2,3,2,5.3c0,1.3-0.3,2.4-0.9,3.3
			c-0.6,0.9-1.4,1.7-2.5,2.2c1.2,0.4,2.1,1.1,2.7,2.1c0.5,1,0.8,2.2,0.8,3.7v1.8c0,0.7,0.1,1.4,0.2,2.2s0.4,1.3,0.8,1.7v0.4h-4.8
			c-0.4-0.4-0.6-0.9-0.7-1.8c-0.1-0.8-0.2-1.6-0.2-2.4v-1.7c0-1.3-0.3-2.2-0.8-2.9c-0.5-0.7-1.2-1-2.2-1H350.6z M350.6,16h2.5
			c1,0,1.7-0.3,2.3-0.9s0.8-1.5,0.8-2.6c0-1.1-0.3-2.1-0.8-2.7c-0.5-0.7-1.3-1-2.2-1h-2.5V16z"/>
		<linearGradient id="SVGID_19_" gradientUnits="userSpaceOnUse" x1="189.5403" y1="32.2891" x2="189.5403" y2="4.6499">
			<stop  offset="0" style="stop-color:#C32833"/>
			<stop  offset="9.866530e-02" style="stop-color:#C6333E"/>
			<stop  offset="0.2742" style="stop-color:#CF525B"/>
			<stop  offset="0.5061" style="stop-color:#DC8389"/>
			<stop  offset="0.7822" style="stop-color:#EFC6C9"/>
			<stop  offset="0.9949" style="stop-color:#FFFFFF"/>
		</linearGradient>
		<path class="st18" d="M376.3,18.7H369v7.2h8.7v3.7h-13.3V5h13.3v3.7H369V15h7.3V18.7z"/>
	</g>
	<g>
		<linearGradient id="SVGID_20_" gradientUnits="userSpaceOnUse" x1="189.5403" y1="30.8877" x2="189.5403" y2="5.6499">
			<stop  offset="0" style="stop-color:#C32833"/>
			<stop  offset="0.1611" style="stop-color:#C63335"/>
			<stop  offset="0.4475" style="stop-color:#CF523B"/>
			<stop  offset="0.8233" style="stop-color:#DC8244"/>
			<stop  offset="0.9949" style="stop-color:#E39B49"/>
		</linearGradient>
		<path class="st19" d="M2.3,28.6V6h5.8c2.2,0,4,0.5,5.2,1.5c1.1,0.9,1.7,2.3,1.7,4.3c0,1-0.2,1.9-0.6,2.6c-0.4,0.7-1,1.2-1.8,1.6
			l-2.8,1.3l3,0.6c1.1,0.2,1.8,0.7,2.3,1.5c0.6,0.9,0.8,1.9,0.8,3.1c0,2.1-0.5,3.6-1.7,4.6c-1.1,1-2.8,1.6-5,1.6H2.3z M4.9,26.9
			h4.4c1.3,0,2.3-0.4,3-1.2c0.7-0.8,1-1.9,1-3.2c0-1.4-0.3-2.5-0.9-3.3c-0.5-0.6-1.3-1.4-3-1.4l-4.5,0V26.9z M4.9,16.4h3.4
			c1.3,0,2.3-0.4,3-1.2c0.7-0.7,1.1-1.8,1.1-3.1c0-1.4-0.4-2.5-1.1-3.3c-0.7-0.7-1.8-1.1-3.2-1.1H4.9V16.4z"/>
		<linearGradient id="SVGID_21_" gradientUnits="userSpaceOnUse" x1="189.5403" y1="30.8877" x2="189.5403" y2="5.6499">
			<stop  offset="0" style="stop-color:#C32833"/>
			<stop  offset="0.1611" style="stop-color:#C63335"/>
			<stop  offset="0.4475" style="stop-color:#CF523B"/>
			<stop  offset="0.8233" style="stop-color:#DC8244"/>
			<stop  offset="0.9949" style="stop-color:#E39B49"/>
		</linearGradient>
		<path class="st20" d="M28.2,29c-2.2,0-4-0.7-5.3-2.1c-1.4-1.4-2-3.3-2-5.8V6h2.6v15.1c0,1.9,0.4,3.4,1.2,4.5
			c0.9,1.1,2.1,1.7,3.6,1.7c1.5,0,2.7-0.6,3.6-1.7c0.8-1.1,1.2-2.6,1.2-4.5V6h2.6v15.1c0,2.5-0.7,4.5-2,5.8
			C32.2,28.3,30.4,29,28.2,29z"/>
		<linearGradient id="SVGID_22_" gradientUnits="userSpaceOnUse" x1="189.5403" y1="30.8877" x2="189.5403" y2="5.6499">
			<stop  offset="0" style="stop-color:#C32833"/>
			<stop  offset="0.1611" style="stop-color:#C63335"/>
			<stop  offset="0.4475" style="stop-color:#CF523B"/>
			<stop  offset="0.8233" style="stop-color:#DC8244"/>
			<stop  offset="0.9949" style="stop-color:#E39B49"/>
		</linearGradient>
		<path class="st21" d="M51.7,28.6c-0.1-0.2-0.2-0.5-0.2-0.9c-0.1-0.8-0.1-1.5-0.1-2.3v-1.7c0-1.5-0.3-2.6-0.9-3.5
			c-0.7-0.9-1.7-1.4-3-1.4h-3.8v9.9H41V6h6.1c2.1,0,3.7,0.5,4.9,1.6c1.2,1.1,1.7,2.6,1.7,4.6c0,1.1-0.2,2-0.7,2.8
			c-0.5,0.8-1.2,1.4-2.1,1.9L48.9,18l2.2,0.8c1,0.3,1.7,0.9,2.1,1.7c0.5,0.8,0.7,1.9,0.7,3.2v1.8c0,0.8,0.1,1.5,0.2,2.4
			c0.1,0.3,0.1,0.6,0.2,0.8H51.7z M43.6,17h3.5c1.3,0,2.3-0.4,3-1.3c0.7-0.8,1-1.9,1-3.3c0-1.4-0.3-2.5-1-3.3
			c-0.7-0.9-1.7-1.4-3-1.4h-3.5V17z"/>
		<linearGradient id="SVGID_23_" gradientUnits="userSpaceOnUse" x1="189.5403" y1="30.8877" x2="189.5403" y2="5.6499">
			<stop  offset="0" style="stop-color:#C32833"/>
			<stop  offset="0.1611" style="stop-color:#C63335"/>
			<stop  offset="0.4475" style="stop-color:#CF523B"/>
			<stop  offset="0.8233" style="stop-color:#DC8244"/>
			<stop  offset="0.9949" style="stop-color:#E39B49"/>
		</linearGradient>
		<polygon class="st22" points="71.4,28.6 63.8,12.8 62.2,13.1 62.1,13.9 62.1,28.6 59.5,28.6 59.5,6 62.5,6 70.1,21.8 71.6,21.6 
			71.7,20.7 71.7,6 74.3,6 74.3,28.6 			"/>
		<linearGradient id="SVGID_24_" gradientUnits="userSpaceOnUse" x1="189.5403" y1="30.8877" x2="189.5403" y2="5.6499">
			<stop  offset="0" style="stop-color:#C32833"/>
			<stop  offset="0.1611" style="stop-color:#C63335"/>
			<stop  offset="0.4475" style="stop-color:#CF523B"/>
			<stop  offset="0.8233" style="stop-color:#DC8244"/>
			<stop  offset="0.9949" style="stop-color:#E39B49"/>
		</linearGradient>
		<polygon class="st23" points="87.4,28.6 87.4,6 99,6 99,7.7 90,7.7 90,16.6 97.5,16.6 97.5,18.3 90,18.3 90,28.6 			"/>
		<linearGradient id="SVGID_25_" gradientUnits="userSpaceOnUse" x1="189.5403" y1="30.8877" x2="189.5403" y2="5.6499">
			<stop  offset="0" style="stop-color:#C32833"/>
			<stop  offset="0.1611" style="stop-color:#C63335"/>
			<stop  offset="0.4475" style="stop-color:#CF523B"/>
			<stop  offset="0.8233" style="stop-color:#DC8244"/>
			<stop  offset="0.9949" style="stop-color:#E39B49"/>
		</linearGradient>
		<path class="st24" d="M115.3,28.6l-1.4-5.3h-7.5l-1.3,5.3h-2.7L108.6,6h3.2l6.2,22.6H115.3z M109.2,12.5l-2.3,9.1h6.6l-2.5-9.8
			h-1.6L109.2,12.5z"/>
		<linearGradient id="SVGID_26_" gradientUnits="userSpaceOnUse" x1="189.5403" y1="30.8877" x2="189.5403" y2="5.6499">
			<stop  offset="0" style="stop-color:#C32833"/>
			<stop  offset="0.1611" style="stop-color:#C63335"/>
			<stop  offset="0.4475" style="stop-color:#CF523B"/>
			<stop  offset="0.8233" style="stop-color:#DC8244"/>
			<stop  offset="0.9949" style="stop-color:#E39B49"/>
		</linearGradient>
		<polygon class="st25" points="126.4,28.6 126.4,7.7 120.9,7.7 120.9,6 134.6,6 134.6,7.7 129,7.7 129,28.6 			"/>
		<linearGradient id="SVGID_27_" gradientUnits="userSpaceOnUse" x1="189.5403" y1="30.8877" x2="189.5403" y2="5.6499">
			<stop  offset="0" style="stop-color:#C32833"/>
			<stop  offset="0.1611" style="stop-color:#C63335"/>
			<stop  offset="0.4475" style="stop-color:#CF523B"/>
			<stop  offset="0.8233" style="stop-color:#DC8244"/>
			<stop  offset="0.9949" style="stop-color:#E39B49"/>
		</linearGradient>
		<path class="st26" d="M158,27.8l-0.7,0.4c-0.6,0.3-1.2,0.5-1.8,0.6c-0.6,0.1-1.3,0.2-2.1,0.2c-2.4,0-4.2-0.7-5.6-2.1
			c-1.4-1.4-2.1-3.5-2.1-6.1v-6.9c0-2.6,0.7-4.6,2.1-6.1c1.4-1.4,3.2-2.1,5.6-2.1c2.4,0,4.2,0.7,5.6,2.2c1.4,1.5,2.1,3.5,2.1,6.1
			v6.9c0,1-0.1,2-0.3,2.8c-0.2,0.8-0.5,1.6-1,2.2l-0.4,0.6l2.7,3.2l-1.4,1.2L158,27.8z M153.4,7.4c-1.7,0-3,0.6-3.8,1.8
			c-0.8,1.1-1.2,2.6-1.2,4.7v6.9c0,2.1,0.4,3.6,1.2,4.7c0.9,1.2,2.2,1.8,3.8,1.8c1.7,0,3-0.6,3.8-1.8c0.8-1.1,1.2-2.6,1.2-4.7v-6.9
			c0-2-0.4-3.6-1.3-4.7C156.3,8,155,7.4,153.4,7.4z"/>
		<linearGradient id="SVGID_28_" gradientUnits="userSpaceOnUse" x1="189.5403" y1="30.8877" x2="189.5403" y2="5.6499">
			<stop  offset="0" style="stop-color:#C32833"/>
			<stop  offset="0.1611" style="stop-color:#C63335"/>
			<stop  offset="0.4475" style="stop-color:#CF523B"/>
			<stop  offset="0.8233" style="stop-color:#DC8244"/>
			<stop  offset="0.9949" style="stop-color:#E39B49"/>
		</linearGradient>
		<path class="st27" d="M174,29c-2.2,0-4-0.7-5.3-2.1c-1.4-1.4-2-3.3-2-5.8V6h2.6v15.1c0,1.9,0.4,3.4,1.2,4.5
			c0.9,1.1,2.1,1.7,3.6,1.7c1.5,0,2.7-0.6,3.6-1.7c0.8-1.1,1.2-2.6,1.2-4.5V6h2.6v15.1c0,2.5-0.7,4.5-2,5.8
			C178,28.3,176.2,29,174,29z"/>
		<linearGradient id="SVGID_29_" gradientUnits="userSpaceOnUse" x1="189.5403" y1="30.8877" x2="189.5403" y2="5.6499">
			<stop  offset="0" style="stop-color:#C32833"/>
			<stop  offset="0.1611" style="stop-color:#C63335"/>
			<stop  offset="0.4475" style="stop-color:#CF523B"/>
			<stop  offset="0.8233" style="stop-color:#DC8244"/>
			<stop  offset="0.9949" style="stop-color:#E39B49"/>
		</linearGradient>
		<rect x="187.1" y="6" class="st28" width="2.6" height="22.6"/>
		<linearGradient id="SVGID_30_" gradientUnits="userSpaceOnUse" x1="189.5403" y1="30.8877" x2="189.5403" y2="5.6499">
			<stop  offset="0" style="stop-color:#C32833"/>
			<stop  offset="0.1611" style="stop-color:#C63335"/>
			<stop  offset="0.4475" style="stop-color:#CF523B"/>
			<stop  offset="0.8233" style="stop-color:#DC8244"/>
			<stop  offset="0.9949" style="stop-color:#E39B49"/>
		</linearGradient>
		<path class="st29" d="M202.5,29c-2.3,0-4.1-0.7-5.4-2c-1.3-1.4-2-3.4-2-6v-7.3c0-2.6,0.6-4.6,1.9-6c1.3-1.4,3-2,5.2-2
			c2.3,0,4.1,0.6,5.3,1.7c1,1,1.6,2.4,1.7,4.3h-2.5c-0.1-1.3-0.4-2.3-1-3c-0.7-0.9-1.9-1.3-3.5-1.3c-1.5,0-2.7,0.6-3.4,1.7
			c-0.7,1-1,2.5-1,4.5V21c0,2,0.4,3.5,1.1,4.6c0.6,0.8,1.6,1.7,3.6,1.7c1.5,0,2.5-0.4,3.2-1.3c0.5-0.7,0.8-1.6,0.9-3h2.5
			c-0.1,1.9-0.6,3.3-1.6,4.3C206.5,28.4,204.8,29,202.5,29z"/>
		<linearGradient id="SVGID_31_" gradientUnits="userSpaceOnUse" x1="189.5403" y1="30.8877" x2="189.5403" y2="5.6499">
			<stop  offset="0" style="stop-color:#C32833"/>
			<stop  offset="0.1611" style="stop-color:#C63335"/>
			<stop  offset="0.4475" style="stop-color:#CF523B"/>
			<stop  offset="0.8233" style="stop-color:#DC8244"/>
			<stop  offset="0.9949" style="stop-color:#E39B49"/>
		</linearGradient>
		<polygon class="st30" points="224.7,28.6 219.6,18.3 216.7,18.3 216.7,28.6 214.1,28.6 214.1,6 216.7,6 216.7,16.1 219.3,16.1 
			224.4,6 227.7,6 221.4,16.2 228.3,28.6 			"/>
		<linearGradient id="SVGID_32_" gradientUnits="userSpaceOnUse" x1="189.5403" y1="30.8877" x2="189.5403" y2="5.6499">
			<stop  offset="0" style="stop-color:#C32833"/>
			<stop  offset="0.1611" style="stop-color:#C63335"/>
			<stop  offset="0.4475" style="stop-color:#CF523B"/>
			<stop  offset="0.8233" style="stop-color:#DC8244"/>
			<stop  offset="0.9949" style="stop-color:#E39B49"/>
		</linearGradient>
		<polygon class="st31" points="232.8,28.6 232.8,6 244.1,6 244.1,7.7 235.4,7.7 235.4,16 242.7,16 242.7,17.7 235.4,17.7 
			235.4,26.9 244.1,26.9 244.1,28.6 			"/>
		<linearGradient id="SVGID_33_" gradientUnits="userSpaceOnUse" x1="189.5403" y1="30.8877" x2="189.5403" y2="5.6499">
			<stop  offset="0" style="stop-color:#C32833"/>
			<stop  offset="0.1611" style="stop-color:#C63335"/>
			<stop  offset="0.4475" style="stop-color:#CF523B"/>
			<stop  offset="0.8233" style="stop-color:#DC8244"/>
			<stop  offset="0.9949" style="stop-color:#E39B49"/>
		</linearGradient>
		<path class="st32" d="M259.7,28.6c-0.1-0.2-0.2-0.5-0.2-0.9c-0.1-0.8-0.1-1.6-0.1-2.3v-1.7c0-1.5-0.3-2.6-0.9-3.5
			c-0.7-0.9-1.7-1.4-3-1.4h-3.8v9.9H249V6h6.1c2.1,0,3.7,0.5,4.9,1.6c1.2,1.1,1.7,2.6,1.7,4.6c0,1.1-0.2,2-0.7,2.8
			c-0.5,0.8-1.2,1.4-2.1,1.9l-2.1,1.1l2.2,0.8c1,0.3,1.7,0.9,2.1,1.7c0.5,0.8,0.7,1.9,0.7,3.2v1.8c0,0.8,0.1,1.5,0.2,2.4
			c0.1,0.3,0.1,0.6,0.2,0.8H259.7z M251.6,17h3.5c1.3,0,2.3-0.4,3-1.3c0.7-0.8,1-1.9,1-3.3c0-1.4-0.3-2.5-1-3.3
			c-0.7-0.9-1.7-1.4-3-1.4h-3.5V17z"/>
		<linearGradient id="SVGID_34_" gradientUnits="userSpaceOnUse" x1="189.5403" y1="30.8877" x2="189.5403" y2="5.6499">
			<stop  offset="0" style="stop-color:#C32833"/>
			<stop  offset="0.1611" style="stop-color:#C63335"/>
			<stop  offset="0.4475" style="stop-color:#CF523B"/>
			<stop  offset="0.8233" style="stop-color:#DC8244"/>
			<stop  offset="0.9949" style="stop-color:#E39B49"/>
		</linearGradient>
		<path class="st33" d="M280,29c-1.9,0-3.3-0.5-4.4-1.6c-1.1-1.1-1.6-2.5-1.6-4.3c0-1.1,0.3-2.1,0.8-2.9c0.5-0.9,1.4-1.8,2.6-2.8
			l0.8-0.6l-0.5-0.8c-0.6-1-1.1-1.8-1.4-2.6c-0.3-0.7-0.4-1.5-0.4-2.2c0-1.8,0.4-3.1,1.3-4s2.1-1.3,3.6-1.3c1.3,0,2.3,0.4,3.1,1.3
			c0.8,0.9,1.2,2,1.2,3.3c0,1-0.2,1.9-0.5,2.6c-0.3,0.7-0.9,1.4-1.5,2l-2.3,1.8l4.8,6.4l1.1-0.2l0.3-0.5c0.3-0.6,0.6-1.4,0.8-2.2
			c0.1-0.5,0.2-1,0.2-1.6h1.7c-0.1,1.1-0.2,2.2-0.5,3.1c-0.3,1.2-0.8,2.3-1.5,3.2l-0.4,0.6l2.3,3.1h-2.7l-1.4-1.8l-0.8,0.6
			c-0.8,0.5-1.5,1-2.3,1.2C281.7,28.8,280.9,29,280,29z M278.2,18.9c-0.6,0.7-1,1.3-1.2,2c-0.2,0.6-0.3,1.3-0.3,1.9
			c0,1.2,0.3,2.3,0.9,3.1c0.7,0.9,1.6,1.4,2.7,1.4c0.6,0,1.2-0.1,1.8-0.3c0.6-0.2,1.2-0.4,1.7-0.8l0.9-0.6l-5.7-7.7L278.2,18.9z
			 M280.7,7.4c-0.9,0-1.6,0.4-2.1,1.2c-0.4,0.7-0.6,1.5-0.6,2.4c0,0.6,0.1,1.2,0.4,1.8c0.2,0.5,0.5,1.1,0.9,1.8l0.6,0.9l1.7-1.3
			c0.7-0.5,1.1-1.1,1.4-1.7c0.2-0.6,0.4-1.2,0.4-1.8c0-0.8-0.2-1.5-0.6-2.1C282.2,7.8,281.5,7.4,280.7,7.4z"/>
		<linearGradient id="SVGID_35_" gradientUnits="userSpaceOnUse" x1="189.5403" y1="30.8877" x2="189.5403" y2="5.6499">
			<stop  offset="0" style="stop-color:#C32833"/>
			<stop  offset="0.1611" style="stop-color:#C63335"/>
			<stop  offset="0.4475" style="stop-color:#CF523B"/>
			<stop  offset="0.8233" style="stop-color:#DC8244"/>
			<stop  offset="0.9949" style="stop-color:#E39B49"/>
		</linearGradient>
		<polygon class="st34" points="318.8,28.6 318.8,13.3 317,13 316.7,13.8 312.6,28.6 311,28.6 306.7,13.1 304.9,13.4 304.9,28.6 
			302.3,28.6 302.3,6 306.5,6 311,24.3 312.5,24.3 312.8,23.5 317.1,6 321.3,6 321.3,28.6 			"/>
		<linearGradient id="SVGID_36_" gradientUnits="userSpaceOnUse" x1="189.5403" y1="30.8877" x2="189.5403" y2="5.6499">
			<stop  offset="0" style="stop-color:#C32833"/>
			<stop  offset="0.1611" style="stop-color:#C63335"/>
			<stop  offset="0.4475" style="stop-color:#CF523B"/>
			<stop  offset="0.8233" style="stop-color:#DC8244"/>
			<stop  offset="0.9949" style="stop-color:#E39B49"/>
		</linearGradient>
		<path class="st35" d="M334.1,29c-2.4,0-4.2-0.7-5.6-2.1c-1.4-1.4-2.1-3.5-2.1-6.1v-6.9c0-2.6,0.7-4.7,2.1-6.1
			c1.4-1.4,3.2-2.1,5.6-2.1c2.4,0,4.2,0.7,5.6,2.2c1.4,1.5,2.1,3.5,2.1,6.1v6.9c0,2.7-0.7,4.6-2.1,6.1
			C338.3,28.3,336.5,29,334.1,29z M334.1,7.4c-1.7,0-3,0.6-3.8,1.8c-0.8,1.1-1.2,2.6-1.2,4.7v6.9c0,2.1,0.4,3.6,1.2,4.7
			c0.9,1.2,2.2,1.8,3.8,1.8c1.7,0,3-0.6,3.8-1.8c0.8-1.1,1.2-2.6,1.2-4.7v-6.9c0-2-0.4-3.6-1.3-4.7C337,8,335.7,7.4,334.1,7.4z"/>
		<linearGradient id="SVGID_37_" gradientUnits="userSpaceOnUse" x1="189.5403" y1="30.8877" x2="189.5403" y2="5.6499">
			<stop  offset="0" style="stop-color:#C32833"/>
			<stop  offset="0.1611" style="stop-color:#C63335"/>
			<stop  offset="0.4475" style="stop-color:#CF523B"/>
			<stop  offset="0.8233" style="stop-color:#DC8244"/>
			<stop  offset="0.9949" style="stop-color:#E39B49"/>
		</linearGradient>
		<path class="st36" d="M357.7,28.6c-0.1-0.2-0.2-0.5-0.2-0.9c-0.1-0.8-0.1-1.6-0.1-2.3v-1.7c0-1.5-0.3-2.6-0.9-3.5
			c-0.7-0.9-1.7-1.4-3-1.4h-3.8v9.9H347V6h6.1c2.1,0,3.7,0.5,4.9,1.6c1.2,1.1,1.7,2.6,1.7,4.6c0,1.1-0.2,2-0.7,2.8
			c-0.5,0.8-1.2,1.4-2.1,1.9l-2.1,1.1l2.2,0.8c1,0.3,1.7,0.9,2.1,1.7c0.5,0.8,0.7,1.9,0.7,3.2v1.8c0,0.8,0.1,1.5,0.2,2.4
			c0.1,0.3,0.1,0.6,0.2,0.8H357.7z M349.6,17h3.5c1.3,0,2.3-0.4,3-1.3c0.7-0.8,1-1.9,1-3.3c0-1.4-0.3-2.5-1-3.3
			c-0.7-0.9-1.7-1.4-3-1.4h-3.5V17z"/>
		<linearGradient id="SVGID_38_" gradientUnits="userSpaceOnUse" x1="189.5403" y1="30.8877" x2="189.5403" y2="5.6499">
			<stop  offset="0" style="stop-color:#C32833"/>
			<stop  offset="0.1611" style="stop-color:#C63335"/>
			<stop  offset="0.4475" style="stop-color:#CF523B"/>
			<stop  offset="0.8233" style="stop-color:#DC8244"/>
			<stop  offset="0.9949" style="stop-color:#E39B49"/>
		</linearGradient>
		<polygon class="st37" points="365.4,28.6 365.4,6 376.7,6 376.7,7.7 368,7.7 368,16 375.3,16 375.3,17.7 368,17.7 368,26.9 
			376.8,26.9 376.8,28.6 			"/>
	</g>
</g>
</svg>
