<svg version="1.1" xmlns="http://www.w3.org/2000/svg" xmlns:xlink="http://www.w3.org/1999/xlink" x="0px" y="0px"
	 viewBox="0 0 300 7" style="enable-background:new 0 0 300 7;" xml:space="preserve">
<g>
	<polygon fill="#43625F" points="0,7 7.5,1 15,7 	"/>
	<polygon fill="#43625F" points="15,7 22.5,1 30,7 	"/>
	<polygon fill="#43625F" points="30,7 37.5,1 45,7 	"/>
	<polygon fill="#43625F" points="45,7 52.5,1 60,7 	"/>
	<polygon fill="#43625F" points="60,7 67.5,1 75,7 	"/>
	<polygon fill="#43625F" points="75,7 82.5,1 90,7 	"/>
	<polygon fill="#43625F" points="90,7 97.5,1 105,7 	"/>
	<polygon fill="#43625F" points="105,7 112.5,1 120,7 	"/>
	<polygon fill="#43625F" points="120,7 127.5,1 135,7 	"/>
	<polygon fill="#43625F" points="135,7 142.5,1 150,7 	"/>
	<polygon fill="#43625F" points="150,7 157.5,1 165,7 	"/>
	<polygon fill="#43625F" points="165,7 172.5,1 180,7 	"/>
	<polygon fill="#43625F" points="180,7 187.5,1 195,7 	"/>
	<polygon fill="#43625F" points="195,7 202.5,1 210,7 	"/>
	<polygon fill="#43625F" points="210,7 217.5,1 225,7 	"/>
	<polygon fill="#43625F" points="225,7 232.5,1 240,7 	"/>
	<polygon fill="#43625F" points="240,7 247.5,1 255,7 	"/>
	<polygon fill="#43625F" points="255,7 262.5,1 270,7 	"/>
	<polygon fill="#43625F" points="270,7 277.5,1 285,7 	"/>
	<polygon fill="#43625F" points="285,7 292.5,1 300,7 	"/>
</g>
</svg>
